<?xml version="1.0" encoding="UTF-8" standalone="no"?>
<!-- Created with Inkscape (http://www.inkscape.org/) -->

<svg
   xmlns:dc="http://purl.org/dc/elements/1.1/"
   xmlns:cc="http://creativecommons.org/ns#"
   xmlns:rdf="http://www.w3.org/1999/02/22-rdf-syntax-ns#"
   xmlns:svg="http://www.w3.org/2000/svg"
   xmlns="http://www.w3.org/2000/svg"
   xmlns:sodipodi="http://sodipodi.sourceforge.net/DTD/sodipodi-0.dtd"
   xmlns:inkscape="http://www.inkscape.org/namespaces/inkscape"
   width="239.74"
   height="135.62"
   version="1.1"
   viewBox="0 0 239.74026 135.61559"
   xml:space="preserve"
   id="svg538"
   sodipodi:docname="rubae19-bart.svg"
   inkscape:version="0.92.2 5c3e80d, 2017-08-06"><sodipodi:namedview
     pagecolor="#ffffff"
     bordercolor="#666666"
     borderopacity="1"
     objecttolerance="10"
     gridtolerance="10"
     guidetolerance="10"
     inkscape:pageopacity="0"
     inkscape:pageshadow="2"
     inkscape:window-width="1607"
     inkscape:window-height="808"
     id="namedview540"
     showgrid="false"
     inkscape:zoom="1.2013014"
     inkscape:cx="-22.137515"
     inkscape:cy="47.965779"
     inkscape:window-x="0"
     inkscape:window-y="0"
     inkscape:window-maximized="0"
     inkscape:current-layer="g534" /><metadata
     id="metadata2"><rdf:RDF><cc:Work
         rdf:about=""><dc:format>image/svg+xml</dc:format><dc:type
           rdf:resource="http://purl.org/dc/dcmitype/StillImage" /><dc:title /></cc:Work></rdf:RDF></metadata><defs
     id="defs10"><clipPath
       id="clipPath20"><path
         d="m0 22.588h594.28v796.48h-594.28z"
         id="path4" /></clipPath><clipPath
       id="clipPath32"><path
         d="m0 22.588h595v796.82h-595z"
         id="path7" /></clipPath></defs><g
     transform="matrix(1.3333 0 0 -1.3333 -492.98 282.63)"
     id="g536"><g
       clip-path="url(#clipPath32)"
       id="g534"><g
         fill="#fff"
         id="g170"><path
           d="m294.69 739.82v-18.81h11.394c1.9897 0 3.075 1.0862 3.075 3.0749v12.66c0 1.9897-1.0853 3.075-3.075 3.075zm11.394 3.2549c4.3411 0 6.5108-2.1706 6.5108-6.3299v-12.66c0-4.1592-2.1697-6.3298-6.5108-6.3298h-14.288c-0.3617 0-0.5417 0.1809-0.5417 0.5426v24.234c0 0.3618 0.18 0.5427 0.5417 0.5427h14.288"
           id="path22" /><path
           d="m337.73 737.11c0 1.9897-1.0844 3.075-3.074 3.075h-9.0421c-1.9897 0-3.075-1.0853-3.075-3.075v-13.383c0-1.9897 1.0853-3.074 3.075-3.074h9.0421c1.9896 0 3.074 1.0843 3.074 3.074zm-18.627 0c0 4.1593 2.1697 6.3298 6.5108 6.3298h9.0421c4.3401 0 6.5107-2.1705 6.5107-6.3298v-13.383c0-4.1593-2.1706-6.3299-6.5107-6.3299h-9.0421c-4.3411 0-6.5108 2.1706-6.5108 6.3299v13.383"
           id="path24" /><path
           d="m371.92 718.3-13.02 19.532h-0.1808v-19.532c0-0.3617-0.1809-0.5426-0.5427-0.5426h-2.3514c-0.3618 0-0.5417 0.1809-0.5417 0.5426v24.234c0 0.398 0.1799 0.5427 0.5417 0.5427h2.7132c0.5426 0 0.8682-0.1809 1.0843-0.5427l13.022-19.532h0.1809v19.532c0 0.3618 0.1809 0.5427 0.5426 0.5427h2.3515c0.3617 0 0.5417-0.1809 0.5417-0.5427v-24.234c0-0.3617-0.18-0.5426-0.5417-0.5426h-2.7132c-0.5427 0-0.8682 0.1809-1.0863 0.5426"
           id="path26" /><path
           d="m401.76 737.11c0 1.9897-1.0852 3.075-3.074 3.075h-9.0421c-1.9896 0-3.0749-1.0853-3.0749-3.075v-13.383c0-1.9897 1.0853-3.074 3.0749-3.074h9.0421c1.9888 0 3.074 1.0843 3.074 3.074zm-18.627 0c0 4.1593 2.1696 6.3298 6.5107 6.3298h9.0421c4.3402 0 6.5098-2.1705 6.5098-6.3298v-13.383c0-4.1593-2.1696-6.3299-6.5098-6.3299h-9.0421c-4.3411 0-6.5107 2.1706-6.5107 6.3299v13.383"
           id="path28" /><path
           d="m420.76 718.3c0-0.3617-0.1799-0.5426-0.5417-0.5426h-2.3514c-0.3618 0-0.5427 0.1809-0.5427 0.5426v21.522h-7.9577c-0.3608 0-0.5427 0.1809-0.5427 0.5426v2.1696c0 0.3618 0.1819 0.5427 0.5427 0.5427h19.352c0.3608 0 0.5417-0.1809 0.5417-0.5427v-2.1696c0-0.3617-0.1809-0.5426-0.5417-0.5426h-7.9587v-21.522"
           id="path30" /><path
           d="m453.86 717.76c-0.7235 0-0.9044 0.1809-1.0853 0.5426l-8.6813 18.266h-0.1799v-18.266c0-0.3617-0.1818-0.5426-0.5436-0.5426h-2.3505c-0.3618 0-0.5426 0.1809-0.5426 0.5426v24.234c0 0.3618 0.1808 0.5427 0.5426 0.5427h2.7123c0.7235 0 0.9044-0.1809 1.0852-0.5427l9.5134-20.075h0.1437l9.5134 20.075c0.1808 0.3618 0.3617 0.5427 1.0852 0.5427h2.7132c0.3618 0 0.5417-0.1809 0.5417-0.5427v-24.234c0-0.3617-0.1799-0.5426-0.5417-0.5426h-2.3514c-0.3618 0-0.5426 0.1809-0.5426 0.5426v18.266h-0.1809l-8.6813-18.266c-0.1799-0.3617-0.3618-0.5426-1.0853-0.5426h-1.0843"
           id="path32" /><path
           d="m475.57 742.54c0 0.3618 0.1799 0.5427 0.5417 0.5427h2.3514c0.3608 0 0.5427-0.1809 0.5427-0.5427v-24.234c0-0.3617-0.1819-0.5426-0.5427-0.5426h-2.3514c-0.3618 0-0.5417 0.1809-0.5417 0.5426v24.234"
           id="path34" /><path
           d="m499.98 727.7-10.851 3.4367c-2.1705 0.6874-3.6176 2.1696-3.6176 4.7019v1.2662c0 4.1593 2.1706 6.3298 6.5117 6.3298h6.5107c4.3402 0 6.5098-2.1705 6.5098-6.3298v-1.447c0-0.3618-0.1809-0.5427-0.5426-0.5427h-2.3515c-0.3617 0-0.5416 0.1809-0.5416 0.5427v1.447c0 1.9897-1.0853 3.075-3.0741 3.075h-6.5107c-1.9897 0-3.0749-1.0853-3.0749-3.075v-0.9044c0-1.2662 0.7235-1.9535 1.9887-2.3505l10.851-3.4367c2.1715-0.6874 3.6176-2.1696 3.6176-4.7019v-1.9897c0-4.1593-2.1696-6.3299-6.5107-6.3299h-7.2333c-4.3412 0-6.5117 2.1706-6.5117 6.3299v1.447c0 0.3618 0.1809 0.5427 0.5426 0.5427h2.3515c0.3617 0 0.5426-0.1809 0.5426-0.5427v-1.447c0-1.9897 1.0853-3.074 3.075-3.074h7.2333c1.9896 0 3.0749 1.0843 3.0749 3.074v1.6279c0 1.2662-0.7235 1.9526-1.9897 2.3505"
           id="path36" /><path
           d="m525.67 727.7-10.852 3.4367c-2.1696 0.6874-3.6166 2.1696-3.6166 4.7019v1.2662c0 4.1593 2.1706 6.3298 6.5107 6.3298h6.5108c4.3401 0 6.5107-2.1705 6.5107-6.3298v-1.447c0-0.3618-0.1819-0.5427-0.5427-0.5427h-2.3514c-0.3618 0-0.5426 0.1809-0.5426 0.5427v1.447c0 1.9897-1.0844 3.075-3.074 3.075h-6.5108c-1.9897 0-3.074-1.0853-3.074-3.075v-0.9044c0-1.2662 0.7226-1.9535 1.9887-2.3505l10.851-3.4367c2.1706-0.6874 3.6176-2.1696 3.6176-4.7019v-1.9897c0-4.1593-2.1705-6.3299-6.5107-6.3299h-7.2342c-4.3402 0-6.5117 2.1706-6.5117 6.3299v1.447c0 0.3618 0.1818 0.5427 0.5436 0.5427h2.3505c0.3617 0 0.5436-0.1809 0.5436-0.5427v-1.447c0-1.9897 1.0843-3.074 3.074-3.074h7.2342c1.9897 0 3.074 1.0843 3.074 3.074v1.6279c0 1.2662-0.7225 1.9526-1.9887 2.3505"
           id="path38" /><path
           d="m352.35 681.83-4.2688 11.574h-0.1447l-4.2678-11.574zm-9.9475-3.2549-2.1705-5.9681c-0.1447-0.3617-0.3618-0.5426-0.9044-0.5426h-2.5314c-0.3618 0-0.5065 0.1809-0.3618 0.5426l9.4049 24.234c0.1799 0.3618 0.3617 0.5427 0.9034 0.5427h2.5323c0.5427 0 0.7235-0.1809 0.9044-0.5427l9.4039-24.234c0.1456-0.3617 0-0.5426-0.3608-0.5426h-2.5333c-0.5417 0-0.7587 0.1809-0.9034 0.5426l-2.1706 5.9681h-11.213"
           id="path40" /><path
           d="m374.31 675.32h14.829c0.3618 0 0.5436-0.1809 0.5436-0.5417v-2.1706c0-0.3617-0.1818-0.5426-0.5436-0.5426h-17.723c-0.3617 0-0.5417 0.1809-0.5417 0.5788v24.198c0 0.3618 0.18 0.5427 0.5417 0.5427h2.3515c0.3617 0 0.5426-0.1809 0.5426-0.5427v-21.522"
           id="path42" /><path
           d="m413.02 675.32c0.3617 0 0.5436-0.1809 0.5436-0.5417v-2.1706c0-0.3617-0.1819-0.5426-0.5065-0.5426h-18.484c-0.3608 0-0.5417 0.1809-0.5417 0.5426v24.198c0 0.3979 0.1809 0.5788 0.5417 0.5788h18.086c0.3608 0 0.5426-0.1809 0.5426-0.5427v-2.1696c0-0.3617-0.1818-0.5426-0.5065-0.5426h-15.227v-7.596h11.936c0.3608 0 0.5417-0.1809 0.5417-0.5427v-2.1705c0-0.3618-0.1809-0.5427-0.5055-0.5427h-11.972v-7.9577h15.552"
           id="path44" /><path
           d="m431.36 681.83-4.2678 11.574h-0.1457l-4.2678-11.574zm-9.9474-3.2549-2.1706-5.9681c-0.1447-0.3617-0.3608-0.5426-0.9044-0.5426h-2.5314c-0.3617 0-0.5064 0.1809-0.3617 0.5426l9.4038 24.234c0.1819 0.3618 0.3627 0.5427 0.9044 0.5427h2.5333c0.5417 0 0.7226-0.1809 0.9035-0.5427l9.4048-24.234c0.1437-0.3617 0-0.5426-0.3618-0.5426h-2.5323c-0.5427 0-0.7597 0.1809-0.9044 0.5426l-2.1706 5.9681h-11.213"
           id="path46" /><path
           d="m446.08 694.13v-18.81h11.394c1.9888 0 3.074 1.0862 3.074 3.0749v12.66c0 1.9897-1.0852 3.075-3.074 3.075zm11.394 3.2549c4.3402 0 6.5098-2.1706 6.5098-6.3299v-12.66c0-4.1592-2.1696-6.3298-6.5098-6.3298h-14.288c-0.3617 0-0.5426 0.1809-0.5426 0.5426v24.234c0 0.3618 0.1809 0.5427 0.5426 0.5427h14.288"
           id="path48" /><path
           d="m470.86 696.84c0 0.3618 0.1808 0.5427 0.5416 0.5427h2.3515c0.3617 0 0.5426-0.1809 0.5426-0.5427v-24.234c0-0.3617-0.1809-0.5426-0.5426-0.5426h-2.3515c-0.3608 0-0.5416 0.1809-0.5416 0.5426v24.234"
           id="path50" /><path
           d="m498.17 672.6-13.022 19.532h-0.1809v-19.532c0-0.3617-0.1808-0.5426-0.5426-0.5426h-2.3514c-0.3618 0-0.5417 0.1809-0.5417 0.5426v24.234c0 0.398 0.1799 0.5427 0.5417 0.5427h2.7132c0.5426 0 0.8682-0.1809 1.0852-0.5427l13.022-19.532h0.1809v19.532c0 0.3618 0.1809 0.5427 0.5426 0.5427h2.3515c0.3617 0 0.5417-0.1809 0.5417-0.5427v-24.234c0-0.3617-0.18-0.5426-0.5417-0.5426h-2.7132c-0.5427 0-0.8683 0.1809-1.0853 0.5426"
           id="path52" /><path
           d="m509.39 691.41c0 4.1593 2.1696 6.3298 6.5107 6.3298h8.3186c4.3411 0 6.5107-2.1705 6.5107-6.3298v-1.447c0-0.3618-0.1808-0.5427-0.5417-0.5427h-2.3514c-0.3618 0-0.5436 0.1809-0.5436 0.5427v1.447c0 1.9887-1.0843 3.075-3.074 3.075h-8.3186c-1.9897 0-3.0749-1.0863-3.0749-3.075v-13.383c0-1.9897 1.0852-3.074 3.0749-3.074h8.3186c1.9897 0 3.074 1.0843 3.074 3.074v4.1602h-5.4254c-0.3618 0-0.5417 0.1809-0.5417 0.5417v2.1706c0 0.3617 0.1799 0.5426 0.5417 0.5426h8.3204c0.397 0 0.5417-0.1809 0.5417-0.5788v-6.8363c0-4.1593-2.1696-6.3299-6.5107-6.3299h-8.3186c-4.3411 0-6.5107 2.1706-6.5107 6.3299v13.383"
           id="path54" /><path
           d="m188.08 635.23c0 1.9887-1.0853 3.074-3.0749 3.074h-10.308v-8.6813h10.308c1.9896 0 3.0749 1.0862 3.0749 3.0749v2.5324zm-1.447 10.127c0 1.9897-1.0853 3.075-3.074 3.075h-8.8622v-6.8734h8.8622c1.9887 0 3.074 1.0862 3.074 3.0749v0.7235zm4.8828-12.66c0-4.1592-2.1696-6.3298-6.5107-6.3298h-13.202c-0.3617 0-0.5426 0.1809-0.5426 0.5426v24.234c0 0.3618 0.1809 0.5427 0.5064 0.5427h11.792c4.3401 0 6.5107-2.1706 6.5107-6.3299v-0.7235c0-3.6166-2.7132-4.3402-2.7132-4.3402v-0.1808s4.1593-0.7236 4.1593-4.8828v-2.5324"
           id="path56" /><path
           d="m218.64 632.33c0-4.1593-2.1706-6.3299-6.5107-6.3299h-7.9578c-4.3402 0-6.5107 2.1706-6.5107 6.3299v18.809c0 0.3618 0.1808 0.5427 0.5426 0.5427h2.3514c0.3608 0 0.5417-0.1809 0.5417-0.5427v-18.809c0-1.9897 1.0853-3.074 3.075-3.074h7.9578c1.9896 0 3.074 1.0843 3.074 3.074v18.809c0 0.3618 0.1808 0.5427 0.5426 0.5427h2.3514c0.3618 0 0.5427-0.1809 0.5427-0.5427v-18.809"
           id="path58" /><path
           d="m239.63 636.31-10.851 3.4367c-2.1705 0.6874-3.6176 2.1696-3.6176 4.7019v1.2662c0 4.1593 2.1706 6.3298 6.5117 6.3298h6.5107c4.3402 0 6.5098-2.1705 6.5098-6.3298v-1.447c0-0.3618-0.1809-0.5427-0.5426-0.5427h-2.3515c-0.3608 0-0.5417 0.1809-0.5417 0.5427v1.447c0 1.9887-1.0852 3.075-3.074 3.075h-6.5107c-1.9897 0-3.075-1.0863-3.075-3.075v-0.9044c0-1.2662 0.7236-1.9535 1.9888-2.3505l10.852-3.4367c2.1706-0.6874 3.6167-2.1696 3.6167-4.7019v-1.9897c0-4.1593-2.1696-6.3299-6.5108-6.3299h-7.2333c-4.3411 0-6.5116 2.1706-6.5116 6.3299v1.447c0 0.3618 0.1808 0.5427 0.5426 0.5427h2.3514c0.3618 0 0.5427-0.1809 0.5427-0.5427v-1.447c0-1.9897 1.0853-3.074 3.0749-3.074h7.2333c1.9897 0 3.075 1.0843 3.075 3.074v1.6279c0 1.2662-0.7235 1.9526-1.9897 2.3505"
           id="path60" /><path
           d="m251.57 651.14c0 0.3618 0.1809 0.5427 0.5417 0.5427h2.3514c0.3618 0 0.5427-0.1809 0.5427-0.5427v-24.234c0-0.3617-0.1809-0.5426-0.5427-0.5426h-2.3514c-0.3608 0-0.5417 0.1809-0.5417 0.5426v24.234"
           id="path62" /><path
           d="m278.88 626.91-13.022 19.532h-0.1809v-19.532c0-0.3617-0.1809-0.5426-0.5427-0.5426h-2.3514c-0.3608 0-0.5417 0.1809-0.5417 0.5426v24.234c0 0.398 0.1809 0.5427 0.5417 0.5427h2.7132c0.5426 0 0.8682-0.1809 1.0853-0.5427l13.021-19.532h0.1809v19.532c0 0.3618 0.1809 0.5427 0.5427 0.5427h2.3514c0.3618 0 0.5417-0.1809 0.5417-0.5427v-24.234c0-0.3617-0.1799-0.5426-0.5417-0.5426h-2.7132c-0.5426 0-0.8682 0.1809-1.0843 0.5426"
           id="path64" /><path
           d="m309.44 629.62c0.3618 0 0.5436-0.1809 0.5436-0.5417v-2.1706c0-0.3617-0.1818-0.5426-0.5065-0.5426h-18.484c-0.3618 0-0.5417 0.1809-0.5417 0.5426v24.198c0 0.3979 0.1799 0.5788 0.5417 0.5788h18.086c0.3608 0 0.5426-0.1809 0.5426-0.5427v-2.1696c0-0.3617-0.1818-0.5426-0.5064-0.5426h-15.228v-7.596h11.937c0.3618 0 0.5417-0.1809 0.5417-0.5427v-2.1705c0-0.3618-0.1799-0.5427-0.5055-0.5427h-11.973v-7.9577h15.553"
           id="path66" /><path
           d="m328.8 636.31-10.852 3.4367c-2.1696 0.6874-3.6166 2.1696-3.6166 4.7019v1.2662c0 4.1593 2.1705 6.3298 6.5107 6.3298h6.5107c4.3402 0 6.5107-2.1705 6.5107-6.3298v-1.447c0-0.3618-0.1818-0.5427-0.5426-0.5427h-2.3514c-0.3618 0-0.5427 0.1809-0.5427 0.5427v1.447c0 1.9887-1.0843 3.075-3.074 3.075h-6.5107c-1.9897 0-3.074-1.0863-3.074-3.075v-0.9044c0-1.2662 0.7225-1.9535 1.9887-2.3505l10.851-3.4367c2.1706-0.6874 3.6176-2.1696 3.6176-4.7019v-1.9897c0-4.1593-2.1706-6.3299-6.5107-6.3299h-7.2343c-4.3401 0-6.5117 2.1706-6.5117 6.3299v1.447c0 0.3618 0.1819 0.5427 0.5436 0.5427h2.3505c0.3618 0 0.5436-0.1809 0.5436-0.5427v-1.447c0-1.9897 1.0843-3.074 3.074-3.074h7.2343c1.9897 0 3.074 1.0843 3.074 3.074v1.6279c0 1.2662-0.7226 1.9526-1.9887 2.3505"
           id="path68" /><path
           d="m354.48 636.31-10.851 3.4367c-2.1706 0.6874-3.6176 2.1696-3.6176 4.7019v1.2662c0 4.1593 2.1705 6.3298 6.5116 6.3298h6.5098c4.3411 0 6.5108-2.1705 6.5108-6.3298v-1.447c0-0.3618-0.1809-0.5427-0.5427-0.5427h-2.3514c-0.3618 0-0.5417 0.1809-0.5417 0.5427v1.447c0 1.9887-1.0853 3.075-3.075 3.075h-6.5098c-1.9896 0-3.0749-1.0863-3.0749-3.075v-0.9044c0-1.2662 0.7235-1.9535 1.9887-2.3505l10.851-3.4367c2.1715-0.6874 3.6176-2.1696 3.6176-4.7019v-1.9897c0-4.1593-2.1696-6.3299-6.5107-6.3299h-7.2333c-4.3411 0-6.5117 2.1706-6.5117 6.3299v1.447c0 0.3618 0.1809 0.5427 0.5426 0.5427h2.3515c0.3617 0 0.5426-0.1809 0.5426-0.5427v-1.447c0-1.9897 1.0853-3.074 3.075-3.074h7.2333c1.9897 0 3.0749 1.0843 3.0749 3.074v1.6279c0 1.2662-0.7235 1.9526-1.9896 2.3505"
           id="path70" /><path
           d="m386.39 636.13-4.2688 11.574h-0.1447l-4.2678-11.574zm-9.9484-3.2549-2.1696-5.9681c-0.1447-0.3617-0.3618-0.5426-0.9044-0.5426h-2.5314c-0.3617 0-0.5064 0.1809-0.3617 0.5426l9.4048 24.234c0.1799 0.3618 0.3617 0.5427 0.9034 0.5427h2.5323c0.5417 0 0.7236-0.1809 0.9035-0.5427l9.4048-24.234c0.1456-0.3617 0-0.5426-0.3618-0.5426h-2.5323c-0.5417 0-0.7597 0.1809-0.9034 0.5426l-2.1706 5.9681h-11.214"
           id="path72" /><path
           d="m401.37 626.37c-0.5427 0-0.7236 0.1447-0.9044 0.5426l-9.224 24.234c-0.1447 0.3618 0 0.5427 0.3618 0.5427h2.5314c0.5436 0 0.7597-0.1809 0.9053-0.5427l7.2333-19.568h0.1818l7.2333 19.568c0.1457 0.3618 0.3618 0.5427 0.9054 0.5427h2.5314c0.3617 0 0.5064-0.1809 0.3617-0.5427l-9.2239-24.234c-0.1799-0.3979-0.3618-0.5426-0.9035-0.5426h-1.9896"
           id="path74" /><path
           d="m417.9 651.14c0 0.3618 0.1809 0.5427 0.5427 0.5427h2.3505c0.3617 0 0.5436-0.1809 0.5436-0.5427v-24.234c0-0.3617-0.1819-0.5426-0.5436-0.5426h-2.3505c-0.3618 0-0.5427 0.1809-0.5427 0.5426v24.234"
           id="path76" /><path
           d="m441.31 636.13-4.2678 11.574h-0.1447l-4.2688-11.574zm-9.9474-3.2549-2.1696-5.9681c-0.1457-0.3617-0.3618-0.5426-0.9044-0.5426h-2.5324c-0.3617 0-0.5064 0.1809-0.3617 0.5426l9.4048 24.234c0.1809 0.3618 0.3617 0.5427 0.9044 0.5427h2.5323c0.5417 0 0.7235-0.1809 0.9035-0.5427l9.4048-24.234c0.1447-0.3617 0-0.5426-0.3618-0.5426h-2.5323c-0.5417 0-0.7597 0.1809-0.9035 0.5426l-2.1715 5.9681h-11.213"
           id="path78" /><path
           d="m457.66 626.91c0-0.3617-0.18-0.5426-0.5417-0.5426h-2.3515c-0.3617 0-0.5426 0.1809-0.5426 0.5426v21.522h-7.9578c-0.3617 0-0.5426 0.1809-0.5426 0.5426v2.1696c0 0.3618 0.1809 0.5427 0.5426 0.5427h19.35c0.3627 0 0.5436-0.1809 0.5436-0.5427v-2.1696c0-0.3617-0.1809-0.5426-0.5436-0.5426h-7.9568v-21.522"
           id="path80" /><path
           d="m470.14 651.14c0 0.3618 0.1809 0.5427 0.5427 0.5427h2.3505c0.3617 0 0.5436-0.1809 0.5436-0.5427v-24.234c0-0.3617-0.1819-0.5426-0.5436-0.5426h-2.3505c-0.3618 0-0.5427 0.1809-0.5427 0.5426v24.234"
           id="path82" /><path
           d="m499.08 645.72c0 1.9887-1.0853 3.075-3.075 3.075h-9.0421c-1.9897 0-3.074-1.0863-3.074-3.075v-13.383c0-1.9897 1.0843-3.074 3.074-3.074h9.0421c1.9897 0 3.075 1.0843 3.075 3.074zm-18.628 0c0 4.1593 2.1706 6.3298 6.5107 6.3298h9.0421c4.3411 0 6.5107-2.1705 6.5107-6.3298v-13.383c0-4.1593-2.1696-6.3299-6.5107-6.3299h-9.0421c-4.3401 0-6.5107 2.1706-6.5107 6.3299v13.383"
           id="path84" /><path
           d="m526.03 626.91-13.02 19.532h-0.1808v-19.532c0-0.3617-0.1809-0.5426-0.5427-0.5426h-2.3514c-0.3618 0-0.5417 0.1809-0.5417 0.5426v24.234c0 0.398 0.1799 0.5427 0.5417 0.5427h2.7132c0.5426 0 0.8682-0.1809 1.0843-0.5427l13.022-19.532h0.1809v19.532c0 0.3618 0.1809 0.5427 0.5426 0.5427h2.3515c0.3617 0 0.5417-0.1809 0.5417-0.5427v-24.234c0-0.3617-0.18-0.5426-0.5417-0.5426h-2.7132c-0.5427 0-0.8682 0.1809-1.0863 0.5426"
           id="path86" /><path
           d="m239.88 583.93c0.3618 0 0.5426-0.1809 0.5426-0.5417v-2.1706c0-0.3617-0.1808-0.5426-0.5064-0.5426h-18.483c-0.3618 0-0.5426 0.1809-0.5426 0.5426v24.198c0 0.3979 0.1808 0.5788 0.5426 0.5788h18.085c0.3618 0 0.5427-0.1809 0.5427-0.5427v-2.1696c0-0.3617-0.1809-0.5426-0.5065-0.5426h-15.227v-7.596h11.936c0.3618 0 0.5417-0.1809 0.5417-0.5427v-2.1705c0-0.3618-0.1799-0.5427-0.5055-0.5427h-11.972v-7.9577h15.553"
           id="path88" /><path
           d="m252.8 580.67c-0.5426 0-0.7235 0.1447-0.9044 0.5426l-9.2239 24.234c-0.1447 0.3618 0 0.5427 0.3618 0.5427h2.5313c0.5436 0 0.7597-0.1809 0.9054-0.5427l7.2333-19.568h0.1818l7.2333 19.568c0.1457 0.3618 0.3618 0.5427 0.9054 0.5427h2.5313c0.3618 0 0.5065-0.1809 0.3618-0.5427l-9.2239-24.234c-0.18-0.3979-0.3618-0.5426-0.9035-0.5426h-1.9897"
           id="path90" /><path
           d="m288.32 583.93c0.3608 0 0.5426-0.1809 0.5426-0.5417v-2.1706c0-0.3617-0.1818-0.5426-0.5065-0.5426h-18.483c-0.3618 0-0.5427 0.1809-0.5427 0.5426v24.198c0 0.3979 0.1809 0.5788 0.5427 0.5788h18.085c0.3618 0 0.5426-0.1809 0.5426-0.5427v-2.1696c0-0.3617-0.1808-0.5426-0.5064-0.5426h-15.227v-7.596h11.936c0.3618 0 0.5417-0.1809 0.5417-0.5427v-2.1705c0-0.3618-0.1799-0.5427-0.5055-0.5427h-11.972v-7.9577h15.553"
           id="path92" /><path
           d="m310.57 581.21-13.022 19.532h-0.1799v-19.532c0-0.3617-0.1818-0.5426-0.5436-0.5426h-2.3514c-0.3608 0-0.5417 0.1809-0.5417 0.5426v24.234c0 0.398 0.1809 0.5427 0.5417 0.5427h2.7132c0.5426 0 0.8682-0.1809 1.0853-0.5427l13.022-19.532h0.1799v19.532c0 0.3618 0.1818 0.5427 0.5436 0.5427h2.3505c0.3617 0 0.5426-0.1809 0.5426-0.5427v-24.234c0-0.3617-0.1809-0.5426-0.5426-0.5426h-2.7123c-0.5426 0-0.8682 0.1809-1.0862 0.5426"
           id="path94" /><path
           d="m330.83 581.21c0-0.3617-0.1799-0.5426-0.5417-0.5426h-2.3514c-0.3618 0-0.5427 0.1809-0.5427 0.5426v21.522h-7.9568c-0.3617 0-0.5436 0.1809-0.5436 0.5426v2.1696c0 0.3618 0.1819 0.5427 0.5436 0.5427h19.351c0.3618 0 0.5417-0.1809 0.5417-0.5427v-2.1696c0-0.3617-0.1799-0.5426-0.5417-0.5426h-7.9587v-21.522"
           id="path96" /><path
           d="m350.54 605.45c0 0.3618 0.1809 0.5427 0.5426 0.5427h2.3505c0.3618 0 0.5436-0.1809 0.5436-0.5427v-24.234c0-0.3617-0.1818-0.5426-0.5436-0.5426h-2.3505c-0.3617 0-0.5426 0.1809-0.5426 0.5426v24.234"
           id="path98" /><path
           d="m377.85 581.21-13.022 19.532h-0.18v-19.532c0-0.3617-0.1818-0.5426-0.5436-0.5426h-2.3505c-0.3617 0-0.5426 0.1809-0.5426 0.5426v24.234c0 0.398 0.1809 0.5427 0.5426 0.5427h2.7123c0.5436 0 0.8682-0.1809 1.0853-0.5427l13.022-19.532h0.1799v19.532c0 0.3618 0.1818 0.5427 0.5426 0.5427h2.3515c0.3617 0 0.5417-0.1809 0.5417-0.5427v-24.234c0-0.3617-0.18-0.5426-0.5417-0.5426h-2.7123c-0.5436 0-0.8691 0.1809-1.0852 0.5426"
           id="path100" /><path
           d="m410.05 592.61c1.9897 0 3.075 1.0852 3.075 3.0749v3.9784c0 1.9897-1.0853 3.075-3.075 3.075h-9.9464v-10.128zm7.0534-11.394c0.1809-0.3617 0-0.5426-0.3608-0.5426h-2.5333c-0.5417 0-0.7225 0.1809-0.9044 0.5426l-4.3392 8.1387h-8.8621v-8.1387c0-0.3617-0.1809-0.5426-0.5427-0.5426h-2.3514c-0.3618 0-0.5417 0.1809-0.5417 0.5426v24.234c0 0.3618 0.1799 0.5427 0.5417 0.5427h12.84c4.3412 0 6.5108-2.1706 6.5108-6.3299v-3.9784c0-5.4264-4.1593-5.969-4.1593-5.969l4.7019-8.4995"
           id="path102" /><path
           d="m444.31 586.64c0-4.1593-2.1706-6.3299-6.5108-6.3299h-7.9577c-4.3402 0-6.5108 2.1706-6.5108 6.3299v18.809c0 0.3618 0.1809 0.5427 0.5427 0.5427h2.3514c0.3608 0 0.5427-0.1809 0.5427-0.5427v-18.809c0-1.9897 1.0843-3.074 3.074-3.074h7.9577c1.9897 0 3.074 1.0843 3.074 3.074v18.809c0 0.3618 0.1819 0.5427 0.5436 0.5427h2.3505c0.3618 0 0.5427-0.1809 0.5427-0.5427v-18.809"
           id="path104" /><path
           d="m465.29 590.62-10.852 3.4367c-2.1697 0.6874-3.6176 2.1696-3.6176 4.7019v1.2662c0 4.1593 2.1715 6.3298 6.5116 6.3298h6.5108c4.3411 0 6.5107-2.1705 6.5107-6.3298v-1.447c0-0.3618-0.1809-0.5427-0.5427-0.5427h-2.3514c-0.3618 0-0.5417 0.1809-0.5417 0.5427v1.447c0 1.9887-1.0853 3.075-3.0749 3.075h-6.5108c-1.9896 0-3.074-1.0863-3.074-3.075v-0.9044c0-1.2662 0.7226-1.9535 1.9888-2.3505l10.851-3.4367c2.1706-0.6874 3.6176-2.1696 3.6176-4.7019v-1.9897c0-4.1593-2.1696-6.3299-6.5107-6.3299h-7.2342c-4.3402 0-6.5117 2.1706-6.5117 6.3299v1.447c0 0.3618 0.1818 0.5427 0.5436 0.5427h2.3514c0.3608 0 0.5427-0.1809 0.5427-0.5427v-1.447c0-1.9897 1.0843-3.074 3.074-3.074h7.2342c1.9897 0 3.074 1.0843 3.074 3.074v1.6279c0 1.2662-0.7225 1.9526-1.9887 2.3505"
           id="path106" /><path
           d="m490.97 590.62-10.851 3.4367c-2.1705 0.6874-3.6166 2.1696-3.6166 4.7019v1.2662c0 4.1593 2.1696 6.3298 6.5107 6.3298h6.5107c4.3392 0 6.5098-2.1705 6.5098-6.3298v-1.447c0-0.3618-0.1809-0.5427-0.5426-0.5427h-2.3515c-0.3608 0-0.5417 0.1809-0.5417 0.5427v1.447c0 1.9887-1.0853 3.075-3.074 3.075h-6.5107c-1.9897 0-3.075-1.0863-3.075-3.075v-0.9044c0-1.2662 0.7236-1.9535 1.9888-2.3505l10.852-3.4367c2.1706-0.6874 3.6167-2.1696 3.6167-4.7019v-1.9897c0-4.1593-2.1697-6.3299-6.5108-6.3299h-7.2333c-4.3411 0-6.5116 2.1706-6.5116 6.3299v1.447c0 0.3618 0.1808 0.5427 0.5426 0.5427h2.3514c0.3618 0 0.5427-0.1809 0.5427-0.5427v-1.447c0-1.9897 1.0853-3.074 3.0749-3.074h7.2333c1.9897 0 3.075 1.0843 3.075 3.074v1.6279c0 1.2662-0.7235 1.9526-1.9897 2.3505"
           id="path108" /><path
           d="m502.91 605.45c0 0.3618 0.1809 0.5427 0.5417 0.5427h2.3514c0.3618 0 0.5427-0.1809 0.5427-0.5427v-24.234c0-0.3617-0.1809-0.5426-0.5427-0.5426h-2.3514c-0.3608 0-0.5417 0.1809-0.5417 0.5426v24.234"
           id="path110" /><path
           d="m526.32 590.44-4.2679 11.574h-0.1456l-4.2678-11.574zm-9.9475-3.2549-2.1696-5.9681c-0.1457-0.3617-0.3618-0.5426-0.9053-0.5426h-2.5314c-0.3618 0-0.5065 0.1809-0.3618 0.5426l9.4048 24.234c0.1809 0.3618 0.3618 0.5427 0.9035 0.5427h2.5333c0.5416 0 0.7225-0.1809 0.9034-0.5427l9.4048-24.234c0.1447-0.3617 0-0.5426-0.3618-0.5426h-2.5323c-0.5426 0-0.7597 0.1809-0.9044 0.5426l-2.1705 5.9681h-11.213"
           id="path112" /><path
           d="m399.16 544.74-4.2688 11.574h-0.1447l-4.2678-11.574zm-9.9484-3.2549-2.1696-5.9681c-0.1447-0.3617-0.3618-0.5426-0.9044-0.5426h-2.5314c-0.3618 0-0.5065 0.1809-0.3618 0.5426l9.4039 24.234c0.1809 0.3618 0.3627 0.5427 0.9044 0.5427h2.5323c0.5427 0 0.7235-0.1809 0.9035-0.5427l9.4048-24.234c0.1447-0.3617 0-0.5426-0.3618-0.5426h-2.5323c-0.5417 0-0.7597 0.1809-0.9035 0.5426l-2.1705 5.9681h-11.214"
           id="path114" /><path
           d="m427.09 535.52-13.021 19.532h-0.1809v-19.532c0-0.3617-0.1809-0.5426-0.5426-0.5426h-2.3515c-0.3608 0-0.5417 0.1809-0.5417 0.5426v24.234c0 0.398 0.1809 0.5427 0.5417 0.5427h2.7132c0.5427 0 0.8683-0.1809 1.0853-0.5427l13.022-19.532h0.1808v19.532c0 0.3618 0.1809 0.5427 0.5427 0.5427h2.3514c0.3618 0 0.5417-0.1809 0.5417-0.5427v-24.234c0-0.3617-0.1799-0.5426-0.5417-0.5426h-2.7132c-0.5426 0-0.8682 0.1809-1.0853 0.5426"
           id="path116" /><path
           d="m442.1 557.04v-18.81h11.394c1.9897 0 3.074 1.0862 3.074 3.0749v12.66c0 1.9897-1.0843 3.075-3.074 3.075zm11.394 3.2549c4.3402 0 6.5108-2.1706 6.5108-6.3299v-12.66c0-4.1592-2.1706-6.3298-6.5108-6.3298h-14.288c-0.3618 0-0.5417 0.1809-0.5417 0.5426v24.234c0 0.3618 0.1799 0.5427 0.5417 0.5427h14.288"
           id="path118" /><path
           d="m473.76 554.33c0 4.1593 2.1696 6.3298 6.5107 6.3298h8.3186c4.3411 0 6.5107-2.1705 6.5107-6.3298v-1.447c0-0.3618-0.1799-0.5427-0.5417-0.5427h-2.3514c-0.3618 0-0.5426 0.1809-0.5426 0.5427v1.447c0 1.9887-1.0853 3.075-3.075 3.075h-8.3186c-1.9897 0-3.074-1.0863-3.074-3.075v-13.383c0-1.9897 1.0843-3.074 3.074-3.074h8.3186c1.9897 0 3.075 1.0843 3.075 3.074v1.447c0 0.3618 0.1808 0.5427 0.5426 0.5427h2.3514c0.3618 0 0.5417-0.1809 0.5417-0.5427v-1.447c0-4.1593-2.1696-6.3299-6.5107-6.3299h-8.3186c-4.3411 0-6.5107 2.1706-6.5107 6.3299v13.383"
           id="path120" /><path
           d="m501.25 559.75c0 0.3618 0.1809 0.5427 0.5417 0.5427h2.3515c0.3617 0 0.5426-0.1809 0.5426-0.5427v-24.234c0-0.3617-0.1809-0.5426-0.5426-0.5426h-2.3515c-0.3608 0-0.5417 0.1809-0.5417 0.5426v24.234"
           id="path122" /><path
           d="m525.67 544.92-10.852 3.4367c-2.1696 0.6874-3.6176 2.1696-3.6176 4.7019v1.2662c0 4.1593 2.1715 6.3298 6.5117 6.3298h6.5107c4.3411 0 6.5107-2.1705 6.5107-6.3298v-1.447c0-0.3618-0.1818-0.5427-0.5426-0.5427h-2.3514c-0.3618 0-0.5427 0.1809-0.5427 0.5427v1.447c0 1.9887-1.0843 3.075-3.074 3.075h-6.5107c-1.9897 0-3.074-1.0863-3.074-3.075v-0.9044c0-1.2662 0.7225-1.9535 1.9877-2.3505l10.852-3.4367c2.1706-0.6874 3.6176-2.1696 3.6176-4.7019v-1.9897c0-4.1593-2.1706-6.3299-6.5107-6.3299h-7.2343c-4.3402 0-6.5117 2.1706-6.5117 6.3299v1.447c0 0.3618 0.1819 0.5427 0.5436 0.5427h2.3505c0.3618 0 0.5436-0.1809 0.5436-0.5427v-1.447c0-1.9897 1.0843-3.074 3.074-3.074h7.2343c1.9896 0 3.074 1.0843 3.074 3.074v1.6279c0 1.2662-0.7226 1.9526-1.9888 2.3505"
           id="path124" /><path
           d="m269.22 287.63-6.981 2.2105c-1.3966 0.4417-2.3277 1.3956-2.3277 3.0255v0.8139c0 2.6761 1.3966 4.0727 4.1888 4.0727h4.1888c2.7932 0 4.1888-1.3966 4.1888-4.0727v-0.931c0-0.2323-0.1161-0.3485-0.3484-0.3485h-1.5127c-0.2333 0-0.3494 0.1162-0.3494 0.3485v0.931c0 1.2795-0.6978 1.9783-1.9783 1.9783h-4.1888c-1.2795 0-1.9773-0.6988-1.9773-1.9783v-0.5816c0-0.814 0.4646-1.2567 1.2795-1.5128l6.981-2.2105c1.3966-0.4427 2.3277-1.3966 2.3277-3.0255v-1.2804c0-2.6751-1.3966-4.0717-4.1888-4.0717h-4.6544c-2.7931 0-4.1888 1.3966-4.1888 4.0717v0.931c0 0.2333 0.1162 0.3494 0.3485 0.3494h1.5127c0.2332 0 0.3494-0.1161 0.3494-0.3494v-0.931c0-1.2795 0.6978-1.9773 1.9782-1.9773h4.6544c1.2795 0 1.9773 0.6978 1.9773 1.9773v1.0481c0 0.815-0.4646 1.2557-1.2795 1.5128"
           id="path126" /><path
           d="m284.46 288.21v1.5127c0 1.0482-0.6979 1.746-1.7451 1.746h-2.7931c-1.0463 0-1.745-0.6978-1.745-1.746v-1.5127zm-6.2832-1.8612v-1.745c0-1.0472 0.6987-1.746 1.745-1.746h2.7931c1.0472 0 1.7451 0.6988 1.7451 1.746v0.1162c0 0.2322 0.1161 0.3484 0.3484 0.3484h1.2804c0.2333 0 0.3494-0.1162 0.3494-0.3484v-0.1162c0-2.3276-1.2804-3.6071-3.7233-3.6071h-2.7931c-2.4429 0-3.7233 1.2795-3.7233 3.6071v5.1189c0 2.3277 1.2804 3.6071 3.7233 3.6071h2.7931c2.4429 0 3.7233-1.2794 3.7233-3.6071v-3.0254c0-0.2323-0.1161-0.3485-0.3494-0.3485h-7.912"
           id="path128" /><path
           d="m296.33 283.1c1.0472 0 1.745 0.6978 1.745 1.745v4.8866c0 1.0482-0.6978 1.746-1.745 1.746h-1.9783c-1.3965 0-2.4437-1.0472-2.4437-2.4438v-5.9338zm-4.422-1.8621v-4.0717c0-0.2333-0.1162-0.3494-0.3494-0.3494h-1.2795c-0.2333 0-0.3494 0.1161-0.3494 0.3494v15.591c0 0.2332 0.1161 0.3494 0.3494 0.3494h1.2795c0.2332 0 0.3494-0.1162 0.3494-0.3494v-0.8149h0.1171s0.5807 1.3965 2.5589 1.3965h1.746c2.4428 0 3.7223-1.2794 3.7223-3.6071v-4.8866c0-2.3267-1.2795-3.6071-3.7223-3.6071h-4.422"
           id="path130" /><path
           d="m304.48 293.1v2.4428c0 0.2342 0.1162 0.3503 0.3484 0.3503h1.2805c0.2332 0 0.3494-0.1161 0.3494-0.3503v-2.4428h2.3267c0.2322 0 0.3484-0.1162 0.3484-0.3494v-1.1634c0-0.2323-0.1162-0.3494-0.3484-0.3494h-2.3267v-6.5154c0-0.9311 0.6978-1.6289 1.6288-1.6289h1.3957c0.2332 0 0.3494-0.1171 0.3494-0.3494v-1.1643c0-0.2323-0.1162-0.3484-0.3494-0.3484h-1.3957c-2.3276 0-3.6071 1.2804-3.6071 3.491v6.5154h-1.745c-0.2342 0-0.3503 0.1171-0.3503 0.3494v1.1634c0 0.2332 0.1161 0.3494 0.3503 0.3494h1.745"
           id="path132" /><path
           d="m320.89 288.21v1.5127c0 1.0482-0.6978 1.746-1.745 1.746h-2.7931c-1.0463 0-1.7451-0.6978-1.7451-1.746v-1.5127zm-6.2832-1.8612v-1.745c0-1.0472 0.6988-1.746 1.7451-1.746h2.7931c1.0472 0 1.745 0.6988 1.745 1.746v0.1162c0 0.2322 0.1162 0.3484 0.3494 0.3484h1.2795c0.2332 0 0.3494-0.1162 0.3494-0.3484v-0.1162c0-2.3276-1.2804-3.6071-3.7233-3.6071h-2.7931c-2.4429 0-3.7233 1.2795-3.7233 3.6071v5.1189c0 2.3277 1.2804 3.6071 3.7233 3.6071h2.7931c2.4429 0 3.7233-1.2794 3.7233-3.6071v-3.0254c0-0.2323-0.1162-0.3485-0.3494-0.3485h-7.9121"
           id="path134" /><path
           d="m335.32 281.58c0-0.2323-0.1171-0.3484-0.3494-0.3484h-1.2804c-0.2323 0-0.3485 0.1161-0.3485 0.3484v8.1453c0 1.0482-0.6978 1.746-1.745 1.746h-0.8149c-1.3956 0-2.4438-1.0472-2.4438-2.4438v-7.4475c0-0.2323-0.1161-0.3484-0.3484-0.3484h-1.2804c-0.2323 0-0.3494 0.1161-0.3494 0.3484v11.171c0 0.2332 0.1171 0.3494 0.3494 0.3494h1.2804c0.2323 0 0.3484-0.1162 0.3484-0.3494v-0.8149h0.1162s0.5826 1.3965 2.5609 1.3965h0.5816c2.0935 0 2.6761-1.3965 2.6761-1.3965h0.1161s0.5817 1.3965 2.6761 1.3965h1.5127c2.4429 0 3.7233-1.2794 3.7233-3.6071v-8.1453c0-0.2323-0.1161-0.3484-0.3494-0.3484h-1.2795c-0.2332 0-0.3493 0.1161-0.3493 0.3484v8.1453c0 1.0482-0.6979 1.746-1.7451 1.746h-1.5127c-1.0472 0-1.745-0.6978-1.745-1.746v-8.1453"
           id="path136" /><path
           d="m354.17 284.84v4.6543c0 1.0482-0.6988 1.745-1.745 1.745h-4.422v-8.1443h4.422c1.0462 0 1.745 0.6978 1.745 1.745zm-7.7959-3.6071c-0.2323 0-0.3494 0.1161-0.3494 0.3484v15.592c0 0.2342 0.1171 0.3503 0.3494 0.3503h1.2804c0.2323 0 0.3485-0.1161 0.3485-0.3503v-4.0717h4.422c2.4428 0 3.7233-1.2805 3.7233-3.6072v-4.6543c0-2.3267-1.2805-3.6071-3.7233-3.6071h-6.0509"
           id="path138" /><path
           d="m367.67 288.21v1.5127c0 1.0482-0.6987 1.746-1.745 1.746h-2.7932c-1.0472 0-1.745-0.6978-1.745-1.746v-1.5127zm-6.2832-1.8612v-1.745c0-1.0472 0.6978-1.746 1.745-1.746h2.7932c1.0463 0 1.745 0.6988 1.745 1.746v0.1162c0 0.2322 0.1162 0.3484 0.3494 0.3484h1.2785c0.2342 0 0.3504-0.1162 0.3504-0.3484v-0.1162c0-2.3276-1.2805-3.6071-3.7233-3.6071h-2.7932c-2.4428 0-3.7232 1.2795-3.7232 3.6071v5.1189c0 2.3277 1.2804 3.6071 3.7232 3.6071h2.7932c2.4428 0 3.7233-1.2794 3.7233-3.6071v-3.0254c0-0.2323-0.1162-0.3485-0.3504-0.3485h-7.9111"
           id="path140" /><path
           d="m373.15 292.75c0 0.2332 0.1162 0.3494 0.3485 0.3494h1.2804c0.2323 0 0.3484-0.1162 0.3484-0.3494v-0.8149h0.1162s0.5816 1.3965 2.5599 1.3965h1.2795c0.2332 0 0.3494-0.1161 0.3494-0.3484v-1.1643c0-0.2323-0.1162-0.3484-0.3494-0.3484h-1.5127c-1.3957 0-2.4429-1.0472-2.4429-2.4438v-7.4475c0-0.2323-0.1161-0.3484-0.3484-0.3484h-1.2804c-0.2323 0-0.3485 0.1161-0.3485 0.3484v11.171"
           id="path142" /><path
           d="m390.72 281.58c0-0.2323-0.1171-0.3484-0.3503-0.3484h-1.5118c-0.2332 0-0.3494 0.1161-0.3494 0.3484v13.847h-3.3748c-0.2323 0-0.3484 0.1162-0.3484 0.3504v1.3947c0 0.2342 0.1161 0.3503 0.3484 0.3503h5.236c0.2332 0 0.3503-0.1161 0.3503-0.3503v-15.592"
           id="path144" /><path
           d="m399.45 281.58c0-0.2323-0.118-0.3484-0.3503-0.3484h-1.5127c-0.2323 0-0.3485 0.1161-0.3485 0.3484v13.847h-3.3748c-0.2323 0-0.3484 0.1162-0.3484 0.3504v1.3947c0 0.2342 0.1161 0.3503 0.3484 0.3503h5.236c0.2323 0 0.3503-0.1161 0.3503-0.3503v-15.592"
           id="path146" /><path
           d="m406.2 290.19c0.8149 0 1.3966-0.5816 1.3966-1.3956v-0.5826c0-0.814-0.5817-1.3966-1.3966-1.3966h-0.6978c-0.8149 0-1.3966 0.5826-1.3966 1.3966v0.5826c0 0.814 0.5817 1.3956 1.3966 1.3956h0.6978"
           id="path148" /><path
           d="m416.32 281.58c0-0.2323-0.1171-0.3484-0.3494-0.3484h-1.5127c-0.2323 0-0.3485 0.1161-0.3485 0.3484v13.847h-3.3748c-0.2323 0-0.3484 0.1162-0.3484 0.3504v1.3947c0 0.2342 0.1161 0.3503 0.3484 0.3503h5.236c0.2323 0 0.3494-0.1161 0.3494-0.3503v-15.592"
           id="path150" /><path
           d="m430.4 289.38-6.8649-5.9338v-0.1171h8.2615c0.2323 0 0.3484-0.1162 0.3484-0.3494v-1.3966c0-0.2085-0.1161-0.3484-0.3484-0.3484h-11.171c-0.2332 0-0.3494 0.1161-0.3494 0.3484v1.2804c0 0.3494 0.1162 0.4894 0.3494 0.6988l8.2615 7.2143c0.6987 0.6045 1.0472 0.9301 1.0472 1.8611v1.0472c0 1.2795-0.6988 1.9783-1.9773 1.9783h-3.491c-1.2804 0-1.9783-0.6988-1.9783-1.9783v-0.931c0-0.2323-0.1161-0.3485-0.3493-0.3485h-1.5128c-0.2332 0-0.3494 0.1162-0.3494 0.3485v0.931c0 2.6761 1.3966 4.0727 4.1898 4.0727h3.491c2.7912 0 4.1878-1.3966 4.1878-4.0727v-1.0472c0-1.6288-0.9301-2.5599-1.745-3.2577"
           id="path152" /><path
           d="m438.44 290.19c0.814 0 1.3957-0.5816 1.3957-1.3956v-0.5826c0-0.814-0.5817-1.3966-1.3957-1.3966h-0.6987c-0.814 0-1.3966 0.5826-1.3966 1.3966v0.5826c0 0.814 0.5826 1.3956 1.3966 1.3956h0.6987"
           id="path154" /><path
           d="m448.56 281.58c0-0.2323-0.1171-0.3484-0.3494-0.3484h-1.5128c-0.2322 0-0.3484 0.1161-0.3484 0.3484v13.847h-3.3748c-0.2323 0-0.3485 0.1162-0.3485 0.3504v1.3947c0 0.2342 0.1162 0.3503 0.3485 0.3503h5.236c0.2323 0 0.3494-0.1161 0.3494-0.3503v-15.592"
           id="path156" /><path
           d="m460.2 291.01c2.7922 0 4.1878-1.3966 4.1878-4.0717v-1.8631c0-2.6751-1.3956-4.0717-4.1878-4.0717h-3.7243c-2.7922 0-4.1888 1.3966-4.1888 4.0717v0.931c0 0.2333 0.1171 0.3494 0.3494 0.3494h1.5127c0.2333 0 0.3494-0.1161 0.3494-0.3494v-0.931c0-1.2795 0.6978-1.9773 1.9773-1.9773h3.7243c1.2794 0 1.9773 0.6978 1.9773 1.9773v1.8631c0 1.2785-0.6979 1.9773-1.9773 1.9773h-4.0727c-0.2323 0-0.3494 0.1161-0.3494 0.3493v0.9301c0 0.3504 0.2333 0.5827 0.4655 0.815l4.5373 4.3049v0.1161h-7.6789c-0.2322 0-0.3484 0.1162-0.3484 0.3504v1.3947c0 0.2342 0.1162 0.3503 0.3484 0.3503h10.704c0.2333 0 0.3494-0.1161 0.3494-0.3503v-0.9301c0-0.3485-0.2332-0.5817-0.4655-0.815l-4.5382-4.3049v-0.1161h1.0482"
           id="path158" /><path
           d="m469.18 281.7c0-0.3504-0.2323-0.6988-0.2323-0.6988l-0.931-1.8621c-0.0695-0.1162-0.2323-0.2323-0.3484-0.2323h-0.5827c-0.1161 0-0.1628 0.1161-0.1161 0.2323l1.0472 2.0944h-0.5817c-0.2332 0-0.3494 0.1161-0.3494 0.3484v1.3966c0 0.2332 0.1162 0.3494 0.3494 0.3494h1.3956c0.2333 0 0.3494-0.1162 0.3494-0.3494v-1.2785"
           id="path160" /><path
           d="m486.52 289.38-6.8649-5.9338v-0.1171h8.2615c0.2323 0 0.3484-0.1162 0.3484-0.3494v-1.3966c0-0.2085-0.1161-0.3484-0.3484-0.3484h-11.17c-0.2333 0-0.3494 0.1161-0.3494 0.3484v1.2804c0 0.3494 0.1161 0.4894 0.3494 0.6988l8.2605 7.2143c0.6987 0.6045 1.0472 0.9301 1.0472 1.8611v1.0472c0 1.2795-0.6978 1.9783-1.9783 1.9783h-3.49c-1.2805 0-1.9783-0.6988-1.9783-1.9783v-0.931c0-0.2323-0.1161-0.3485-0.3484-0.3485h-1.5127c-0.2333 0-0.3494 0.1162-0.3494 0.3485v0.931c0 2.6761 1.3956 4.0727 4.1888 4.0727h3.49c2.7932 0 4.1888-1.3966 4.1888-4.0727v-1.0472c0-1.6288-0.9301-2.5599-1.745-3.2577"
           id="path162" /><path
           d="m494.44 285.07c0-1.2795 0.6978-1.9773 1.9773-1.9773h4.6553c1.2785 0 1.9773 0.6978 1.9773 1.9773v8.6108c0 1.2795-0.6988 1.9783-1.9773 1.9783h-4.6553c-1.2795 0-1.9773-0.6988-1.9773-1.9783zm10.82 0c0-2.6751-1.3966-4.0717-4.1878-4.0717h-4.6553c-2.7922 0-4.1879 1.3966-4.1879 4.0717v8.6108c0 2.6761 1.3957 4.0727 4.1879 4.0727h4.6553c2.7912 0 4.1878-1.3966 4.1878-4.0727v-8.6108"
           id="path164" /><path
           d="m513.76 281.58c0-0.2323-0.1171-0.3484-0.3494-0.3484h-1.5127c-0.2323 0-0.3484 0.1161-0.3484 0.3484v13.847h-3.3749c-0.2332 0-0.3493 0.1162-0.3493 0.3504v1.3947c0 0.2342 0.1161 0.3503 0.3493 0.3503h5.236c0.2323 0 0.3494-0.1161 0.3494-0.3503v-15.592"
           id="path166" /><path
           d="m527.84 289.84v3.8394c0 1.2795-0.6988 1.9783-1.9783 1.9783h-3.7233c-1.2804 0-1.9792-0.6988-1.9792-2.0011v-1.8155c0-1.3023 0.6988-2.0011 1.9792-2.0011zm0-2.0944h-5.7016c-2.7931 0-4.1897 1.3966-4.1897 4.0717v1.8621c0 2.6761 1.3966 4.0727 4.1897 4.0727h3.7233c2.7922 0 4.1888-1.3966 4.1888-4.0727v-8.6108c0-2.6751-1.3966-4.0717-4.1888-4.0717h-3.2577c-2.7932 0-4.1898 1.3966-4.1898 4.0717v0.6988c0 0.2322 0.1161 0.3493 0.3503 0.3493h1.5118c0.2333 0 0.3494-0.1171 0.3494-0.3493v-0.6988c0-1.2795 0.6978-1.9773 1.9783-1.9773h3.2577c1.2795 0 1.9783 0.6978 1.9783 1.9773v2.677"
           id="path168" /></g><g
         id="g508"><g
           fill="#0b2d4d"
           id="g422"><path
             d="m394.62 135.05c0.5017 0 0.7768 0.2742 0.7768 0.7759v1.0043c0 0.5027-0.2751 0.7769-0.7768 0.7769h-2.5123v-2.5571zm1.7812-2.8769c0.0447-0.0924 0-0.1371-0.0914-0.1371h-0.6388c-0.138 0-0.1837 0.0447-0.2294 0.1371l-1.0958 2.0544h-2.2381v-2.0544c0-0.0924-0.0448-0.1371-0.1362-0.1371h-0.5931c-0.0923 0-0.138 0.0447-0.138 0.1371v6.1194c0 0.0905 0.0457 0.1352 0.138 0.1352h3.2416c1.0957 0 1.6441-0.5474 1.6441-1.5975v-1.0043c0-1.369-1.051-1.507-1.051-1.507l1.1881-2.1458"
             id="path354" /><path
             d="m403.27 133.54c0-1.0501-0.5474-1.5984-1.6441-1.5984h-2.0097c-1.0948 0-1.6431 0.5483-1.6431 1.5984v4.7495c0 0.0905 0.0447 0.1352 0.1371 0.1352h0.5931c0.0914 0 0.138-0.0447 0.138-0.1352v-4.7495c0-0.5027 0.2732-0.7768 0.7749-0.7768h2.0097c0.5027 0 0.7768 0.2741 0.7768 0.7768v4.7495c0 0.0905 0.0457 0.1352 0.1362 0.1352h0.594c0.0914 0 0.1371-0.0447 0.1371-0.1352v-4.7495"
             id="path356" /><path
             d="m408.57 134.54-2.7398 0.8682c-0.5484 0.1742-0.913 0.5484-0.913 1.1881v0.3189c0 1.051 0.5484 1.5984 1.6441 1.5984h1.6441c1.0958 0 1.6432-0.5474 1.6432-1.5984v-0.3646c0-0.0923-0.0457-0.1371-0.1362-0.1371h-0.593c-0.0924 0-0.1381 0.0448-0.1381 0.1371v0.3646c0 0.5027-0.2742 0.7769-0.7759 0.7769h-1.6441c-0.5026 0-0.7759-0.2742-0.7759-0.7769v-0.2284c0-0.319 0.1819-0.4932 0.5018-0.5941l2.7398-0.8673c0.5484-0.1732 0.9139-0.5474 0.9139-1.1862v-0.5026c0-1.0501-0.5483-1.5984-1.645-1.5984h-1.826c-1.0957 0-1.6441 0.5483-1.6441 1.5984v0.3646c0 0.0914 0.0467 0.138 0.1371 0.138h0.5931c0.0914 0 0.1381-0.0466 0.1381-0.138v-0.3646c0-0.5027 0.2732-0.7768 0.7758-0.7768h1.826c0.5036 0 0.7768 0.2741 0.7768 0.7768v0.4103c0 0.3199-0.1828 0.4931-0.5027 0.5931"
             id="path358" /><path
             d="m415.06 134.54-2.7399 0.8682c-0.5483 0.1742-0.9139 0.5484-0.9139 1.1881v0.3189c0 1.051 0.5484 1.5984 1.6441 1.5984h1.6441c1.0958 0 1.6441-0.5474 1.6441-1.5984v-0.3646c0-0.0923-0.0457-0.1371-0.1371-0.1371h-0.594c-0.0914 0-0.1362 0.0448-0.1362 0.1371v0.3646c0 0.5027-0.2751 0.7769-0.7768 0.7769h-1.6441c-0.5027 0-0.7768-0.2742-0.7768-0.7769v-0.2284c0-0.319 0.1837-0.4932 0.5026-0.5941l2.7399-0.8673c0.5483-0.1732 0.913-0.5474 0.913-1.1862v-0.5026c0-1.0501-0.5474-1.5984-1.6432-1.5984h-1.8269c-1.0957 0-1.6441 0.5483-1.6441 1.5984v0.3646c0 0.0914 0.0457 0.138 0.1371 0.138h0.594c0.0914 0 0.1362-0.0466 0.1362-0.138v-0.3646c0-0.5027 0.2751-0.7768 0.7768-0.7768h1.8269c0.5017 0 0.7759 0.2741 0.7759 0.7768v0.4103c0 0.3199-0.1828 0.4931-0.5017 0.5931"
             id="path360" /><path
             d="m418.08 138.29c0 0.0905 0.0457 0.1352 0.137 0.1352h0.5931c0.0914 0 0.1381-0.0447 0.1381-0.1352v-6.1194c0-0.0924-0.0467-0.1371-0.1381-0.1371h-0.5931c-0.0913 0-0.137 0.0447-0.137 0.1371v6.1194"
             id="path362" /><path
             d="m423.99 134.5-1.0777 2.9236h-0.0371l-1.0777-2.9236zm-2.5124-0.8216-0.5474-1.506c-0.0361-0.0924-0.0913-0.1371-0.2275-0.1371h-0.6397c-0.0924 0-0.1285 0.0447-0.0924 0.1371l2.3743 6.1194c0.0467 0.0905 0.0924 0.1352 0.2295 0.1352h0.6387c0.1371 0 0.1828-0.0447 0.2295-0.1352l2.3743-6.1194c0.0361-0.0924 0-0.1371-0.0924-0.1371h-0.6388c-0.1371 0-0.1923 0.0447-0.2285 0.1371l-0.5474 1.506h-2.8322"
             id="path364" /><path
             d="m431.04 132.17-3.2872 4.9313h-0.0457v-4.9313c0-0.0924-0.0457-0.1371-0.1361-0.1371h-0.5941c-0.0914 0-0.1371 0.0447-0.1371 0.1371v6.1194c0 0.1 0.0457 0.1352 0.1371 0.1352h0.6845c0.1371 0 0.2199-0.0447 0.2742-0.1352l3.2872-4.9323h0.0457v4.9323c0 0.0905 0.0457 0.1352 0.1371 0.1352h0.5941c0.0913 0 0.1361-0.0447 0.1361-0.1352v-6.1194c0-0.0924-0.0448-0.1371-0.1361-0.1371h-0.6855c-0.1361 0-0.218 0.0447-0.2742 0.1371"
             id="path366" /><path
             d="m440.04 134.27c0 0.5036-0.2732 0.7768-0.7749 0.7768h-2.6037v-2.1924h2.6037c0.5017 0 0.7749 0.2741 0.7749 0.7758v0.6398zm-0.3655 2.557c0 0.5027-0.2732 0.7769-0.775 0.7769h-2.2381v-1.7355h2.2381c0.5018 0 0.775 0.2742 0.775 0.7759v0.1827zm1.2338-3.1968c0-1.05-0.5484-1.5974-1.6432-1.5974h-3.3339c-0.0914 0-0.138 0.0447-0.138 0.1371v6.1194c0 0.0905 0.0466 0.1352 0.1285 0.1352h2.9778c1.0948 0 1.6442-0.5474 1.6442-1.5975v-0.1827c0-0.913-0.6855-1.0958-0.6855-1.0958v-0.0457s1.0501-0.1818 1.0501-1.2328v-0.6398"
             id="path368" /><path
             d="m447.76 133.54c0-1.0501-0.5493-1.5984-1.6441-1.5984h-2.0097c-1.0958 0-1.6441 0.5483-1.6441 1.5984v4.7495c0 0.0905 0.0457 0.1352 0.138 0.1352h0.5931c0.0905 0 0.1362-0.0447 0.1362-0.1352v-4.7495c0-0.5027 0.2741-0.7768 0.7768-0.7768h2.0097c0.5017 0 0.7768 0.2741 0.7768 0.7768v4.7495c0 0.0905 0.0447 0.1352 0.1361 0.1352h0.5941c0.0914 0 0.1371-0.0447 0.1371-0.1352v-4.7495"
             id="path370" /><path
             d="m453.05 134.54-2.7398 0.8682c-0.5474 0.1742-0.913 0.5484-0.913 1.1881v0.3189c0 1.051 0.5474 1.5984 1.6441 1.5984h1.6432c1.0967 0 1.645-0.5474 1.645-1.5984v-0.3646c0-0.0923-0.0466-0.1371-0.138-0.1371h-0.5931c-0.0904 0-0.1371 0.0448-0.1371 0.1371v0.3646c0 0.5027-0.2732 0.7769-0.7768 0.7769h-1.6432c-0.5026 0-0.7768-0.2742-0.7768-0.7769v-0.2284c0-0.319 0.1837-0.4932 0.5036-0.5941l2.7399-0.8673c0.5474-0.1732 0.9129-0.5474 0.9129-1.1862v-0.5026c0-1.0501-0.5483-1.5984-1.6441-1.5984h-1.8269c-1.0957 0-1.6441 0.5483-1.6441 1.5984v0.3646c0 0.0914 0.0457 0.138 0.1371 0.138h0.5941c0.0914 0 0.1371-0.0466 0.1371-0.138v-0.3646c0-0.5027 0.2741-0.7768 0.7758-0.7768h1.8269c0.5017 0 0.7759 0.2741 0.7759 0.7768v0.4103c0 0.3199-0.1828 0.4931-0.5027 0.5931"
             id="path372" /><path
             d="m456.07 138.29c0 0.0905 0.0466 0.1352 0.138 0.1352h0.5941c0.0904 0 0.1361-0.0447 0.1361-0.1352v-6.1194c0-0.0924-0.0457-0.1371-0.1361-0.1371h-0.5941c-0.0914 0-0.138 0.0447-0.138 0.1371v6.1194"
             id="path374" /><path
             d="m462.97 132.17-3.2873 4.9313h-0.0466v-4.9313c0-0.0924-0.0457-0.1371-0.1362-0.1371h-0.5931c-0.0923 0-0.138 0.0447-0.138 0.1371v6.1194c0 0.1 0.0457 0.1352 0.138 0.1352h0.6836c0.1371 0 0.2199-0.0447 0.2741-0.1352l3.2883-4.9323h0.0456v4.9323c0 0.0905 0.0457 0.1352 0.1371 0.1352h0.5941c0.0914 0 0.1371-0.0447 0.1371-0.1352v-6.1194c0-0.0924-0.0457-0.1371-0.1371-0.1371h-0.6855c-0.137 0-0.2189 0.0447-0.2741 0.1371"
             id="path376" /><path
             d="m470.69 132.85c0.0905 0 0.1371-0.0448 0.1371-0.1371v-0.5474c0-0.0924-0.0466-0.1371-0.1285-0.1371h-4.6667c-0.0914 0-0.1371 0.0447-0.1371 0.1371v6.1099c0 0.1 0.0457 0.1447 0.1371 0.1447h4.5667c0.0914 0 0.1371-0.0447 0.1371-0.1352v-0.5483c0-0.0914-0.0457-0.1371-0.1275-0.1371h-3.8452v-1.9173h3.0141c0.0904 0 0.1361-0.0457 0.1361-0.1381v-0.5474c0-0.0923-0.0457-0.138-0.1276-0.138h-3.0226v-2.0087h3.927"
             id="path378" /><path
             d="m475.57 134.54-2.7399 0.8682c-0.5483 0.1742-0.9129 0.5484-0.9129 1.1881v0.3189c0 1.051 0.5483 1.5984 1.6441 1.5984h1.6441c1.0957 0 1.6431-0.5474 1.6431-1.5984v-0.3646c0-0.0923-0.0457-0.1371-0.1361-0.1371h-0.594c-0.0914 0-0.1371 0.0448-0.1371 0.1371v0.3646c0 0.5027-0.2742 0.7769-0.7759 0.7769h-1.6441c-0.5027 0-0.7759-0.2742-0.7759-0.7769v-0.2284c0-0.319 0.1818-0.4932 0.5017-0.5941l2.7399-0.8673c0.5483-0.1732 0.9139-0.5474 0.9139-1.1862v-0.5026c0-1.0501-0.5484-1.5984-1.6451-1.5984h-1.8259c-1.0958 0-1.6441 0.5483-1.6441 1.5984v0.3646c0 0.0914 0.0457 0.138 0.1371 0.138h0.5931c0.0914 0 0.138-0.0466 0.138-0.138v-0.3646c0-0.5027 0.2732-0.7768 0.7759-0.7768h1.8259c0.5036 0 0.7769 0.2741 0.7769 0.7768v0.4103c0 0.3199-0.1828 0.4931-0.5027 0.5931"
             id="path380" /><path
             d="m482.06 134.54-2.7398 0.8682c-0.5484 0.1742-0.9139 0.5484-0.9139 1.1881v0.3189c0 1.051 0.5483 1.5984 1.6431 1.5984h1.6451c1.0957 0 1.6441-0.5474 1.6441-1.5984v-0.3646c0-0.0923-0.0457-0.1371-0.1371-0.1371h-0.5941c-0.0914 0-0.138 0.0448-0.138 0.1371v0.3646c0 0.5027-0.2732 0.7769-0.7749 0.7769h-1.6451c-0.5017 0-0.7759-0.2742-0.7759-0.7769v-0.2284c0-0.319 0.1828-0.4932 0.5027-0.5941l2.7398-0.8673c0.5484-0.1732 0.913-0.5474 0.913-1.1862v-0.5026c0-1.0501-0.5474-1.5984-1.6431-1.5984h-1.8269c-1.0958 0-1.6441 0.5483-1.6441 1.5984v0.3646c0 0.0914 0.0457 0.138 0.1371 0.138h0.594c0.0914 0 0.1361-0.0466 0.1361-0.138v-0.3646c0-0.5027 0.2742-0.7768 0.7769-0.7768h1.8269c0.5017 0 0.7758 0.2741 0.7758 0.7768v0.4103c0 0.3199-0.1827 0.4931-0.5017 0.5931"
             id="path382" /><path
             d="m395.06 123.25-1.0349 2.8065h-0.0352l-1.0348-2.8065zm-2.4115-0.7882-0.5264-1.448c-0.0352-0.0867-0.0876-0.1304-0.219-0.1304h-0.614c-0.0876 0-0.1228 0.0437-0.0876 0.1304l2.28 5.8757c0.0438 0.0876 0.0886 0.1314 0.219 0.1314h0.614c0.1324 0 0.1752-0.0438 0.219-0.1314l2.281-5.8757c0.0352-0.0867 0-0.1304-0.0885-0.1304h-0.6131c-0.1324 0-0.1847 0.0437-0.2199 0.1304l-0.5265 1.448h-2.718"
             id="path384" /><path
             d="m398.69 120.88c-0.1314 0-0.1761 0.0352-0.2199 0.1304l-2.2363 5.8757c-0.0352 0.0876 0 0.1314 0.0876 0.1314h0.6141c0.1313 0 0.1837-0.0438 0.2189-0.1314l1.7546-4.7438h0.0437l1.7536 4.7438c0.0353 0.0876 0.0876 0.1314 0.219 0.1314h0.615c0.0866 0 0.1218-0.0438 0.0866-0.1314l-2.2362-5.8757c-0.0438-0.0952-0.0876-0.1304-0.219-0.1304h-0.4817"
             id="path386" /><path
             d="m402.7 126.89c0 0.0876 0.0448 0.1314 0.1323 0.1314h0.5703c0.0876 0 0.1304-0.0438 0.1304-0.1314v-5.8757c0-0.0867-0.0428-0.1304-0.1304-0.1304h-0.5703c-0.0875 0-0.1323 0.0437-0.1323 0.1304v5.8757"
             id="path388" /><path
             d="m408.38 123.25-1.0348 2.8065h-0.0353l-1.0338-2.8065zm-2.4114-0.7882-0.5265-1.448c-0.0343-0.0867-0.0866-0.1304-0.218-0.1304h-0.615c-0.0866 0-0.1218 0.0437-0.0866 0.1304l2.2791 5.8757c0.0447 0.0876 0.0885 0.1314 0.2199 0.1314h0.614c0.1314 0 0.1752-0.0438 0.2199-0.1314l2.2791-5.8757c0.0352-0.0867 0-0.1304-0.0876-0.1304h-0.614c-0.1314 0-0.1847 0.0437-0.219 0.1304l-0.5264 1.448h-2.7189"
             id="path390" /><path
             d="m412.34 121.01c0-0.0867-0.0438-0.1304-0.1314-0.1304h-0.5702c-0.0876 0-0.1323 0.0437-0.1323 0.1304v5.2188h-1.9288c-0.0876 0-0.1314 0.0438-0.1314 0.1314v0.5255c0 0.0876 0.0438 0.1314 0.1314 0.1314h4.6924c0.0876 0 0.1304-0.0438 0.1304-0.1314v-0.5255c0-0.0876-0.0428-0.1314-0.1304-0.1314h-1.9297v-5.2188"
             id="path392" /><path
             d="m415.37 126.89c0 0.0876 0.0448 0.1314 0.1324 0.1314h0.5692c0.0876 0 0.1324-0.0438 0.1324-0.1314v-5.8757c0-0.0867-0.0448-0.1304-0.1324-0.1304h-0.5692c-0.0876 0-0.1324 0.0437-0.1324 0.1304v5.8757"
             id="path394" /><path
             d="m422.39 125.57c0 0.4826-0.2627 0.7463-0.7454 0.7463h-2.1925c-0.4826 0-0.7454-0.2637-0.7454-0.7463v-3.2445c0-0.4826 0.2628-0.7454 0.7454-0.7454h2.1925c0.4827 0 0.7454 0.2628 0.7454 0.7454zm-4.5163 0c0 1.0091 0.5265 1.5355 1.5784 1.5355h2.1925c1.052 0 1.5784-0.5264 1.5784-1.5355v-3.2445c0-1.0072-0.5264-1.5346-1.5784-1.5346h-2.1925c-1.0519 0-1.5784 0.5274-1.5784 1.5346v3.2445"
             id="path396" /><path
             d="m428.92 121.01-3.1558 4.7362h-0.0448v-4.7362c0-0.0867-0.0438-0.1304-0.1314-0.1304h-0.5693c-0.0885 0-0.1323 0.0437-0.1323 0.1304v5.8757c0 0.0971 0.0438 0.1314 0.1323 0.1314h0.6569c0.1314 0 0.2114-0.0438 0.2637-0.1314l3.1569-4.7352h0.0438v4.7352c0 0.0876 0.0437 0.1314 0.1313 0.1314h0.5703c0.0876 0 0.1314-0.0438 0.1314-0.1314v-5.8757c0-0.0867-0.0438-0.1304-0.1314-0.1304h-0.6579c-0.1313 0-0.2103 0.0437-0.2637 0.1304"
             id="path398" /><path
             d="m438.42 121.67c0.0876 0 0.1323-0.0428 0.1323-0.1314v-0.5264c0-0.0867-0.0447-0.1304-0.1228-0.1304h-4.481c-0.0886 0-0.1324 0.0437-0.1324 0.1304v5.8672c0 0.0961 0.0438 0.1399 0.1324 0.1399h4.3839c0.0876 0 0.1323-0.0438 0.1323-0.1314v-0.5255c0-0.0876-0.0447-0.1314-0.1237-0.1314h-3.6919v-1.8421h2.8941c0.0876 0 0.1323-0.0438 0.1323-0.1314v-0.5264c0-0.0876-0.0447-0.1314-0.1237-0.1314h-2.9027v-1.9297h3.7709"
             id="path400" /><path
             d="m443.14 126.89c0.0609 0.0876 0.1314 0.1314 0.219 0.1314h0.7016c0.0885 0 0.1409-0.0609 0.0885-0.1314l-1.8859-2.7617 2.1049-3.114c0.0524-0.079 0-0.1304-0.0885-0.1304h-0.7007c-0.0885 0-0.158 0.0437-0.2199 0.1304l-1.6222 2.4561-1.6222-2.4561c-0.061-0.0867-0.1314-0.1304-0.219-0.1304h-0.7026c-0.0866 0-0.1399 0.0514-0.0866 0.1304l2.1049 3.114-1.8859 2.7617c-0.0524 0.0705 0 0.1314 0.0875 0.1314h0.7017c0.0875 0 0.158-0.0438 0.2199-0.1314l1.4023-2.1049 1.4032 2.1049"
             id="path402" /><path
             d="m449.53 126.89c0 0.0876 0.0438 0.1314 0.1314 0.1314h0.5703c0.0875 0 0.1313-0.0438 0.1313-0.1314v-5.8757c0-0.0867-0.0438-0.1304-0.1313-0.1304h-0.5703c-0.0876 0-0.1314 0.0437-0.1314 0.1218v2.5961h-3.2444v-2.5875c0-0.0867-0.0438-0.1304-0.1323-0.1304h-0.5693c-0.0876 0-0.1314 0.0437-0.1314 0.1304v5.8757c0 0.0876 0.0438 0.1314 0.1314 0.1314h0.5693c0.0885 0 0.1323-0.0438 0.1323-0.1314v-2.499h3.2444v2.499"
             id="path404" /><path
             d="m452.11 126.89c0 0.0876 0.0448 0.1314 0.1314 0.1314h0.5702c0.0876 0 0.1324-0.0438 0.1324-0.1314v-5.8757c0-0.0867-0.0448-0.1304-0.1324-0.1304h-0.5702c-0.0866 0-0.1314 0.0437-0.1314 0.1304v5.8757"
             id="path406" /><path
             d="m458.78 123.03c0 0.4817-0.2627 0.7454-0.7454 0.7454h-2.499v-2.1058h2.499c0.4827 0 0.7454 0.2637 0.7454 0.7454v0.615zm-0.3503 2.4552c0 0.4817-0.2637 0.7454-0.7464 0.7454h-2.1477v-1.6669h2.1477c0.4827 0 0.7464 0.2627 0.7464 0.7454v0.1761zm1.1843-3.0702c0-1.0091-0.5265-1.5336-1.5794-1.5336h-3.2006c-0.0886 0-0.1314 0.0437-0.1314 0.1304v5.8757c0 0.0876 0.0428 0.1314 0.1219 0.1314h2.8588c1.0539 0 1.5794-0.5255 1.5794-1.5337v-0.1761c0-0.8768-0.6578-1.052-0.6578-1.052v-0.0437s1.0091-0.1752 1.0091-1.1834v-0.615"
             id="path408" /><path
             d="m461.11 126.89c0 0.0876 0.0438 0.1314 0.1323 0.1314h0.5693c0.0876 0 0.1314-0.0438 0.1314-0.1314v-5.8757c0-0.0867-0.0438-0.1304-0.1314-0.1304h-0.5693c-0.0885 0-0.1323 0.0437-0.1323 0.1304v5.8757"
             id="path410" /><path
             d="m465.8 121.01c0-0.0867-0.0447-0.1304-0.1323-0.1304h-0.5703c-0.0866 0-0.1313 0.0437-0.1313 0.1304v5.2188h-1.9288c-0.0876 0-0.1314 0.0438-0.1314 0.1314v0.5255c0 0.0876 0.0438 0.1314 0.1314 0.1314h4.6915c0.0876 0 0.1323-0.0438 0.1323-0.1314v-0.5255c0-0.0876-0.0447-0.1314-0.1323-0.1314h-1.9288v-5.2188"
             id="path412" /><path
             d="m468.82 126.89c0 0.0876 0.0447 0.1314 0.1323 0.1314h0.5703c0.0875 0 0.1313-0.0438 0.1313-0.1314v-5.8757c0-0.0867-0.0438-0.1304-0.1313-0.1304h-0.5703c-0.0876 0-0.1323 0.0437-0.1323 0.1304v5.8757"
             id="path414" /><path
             d="m475.84 125.57c0 0.4826-0.2628 0.7463-0.7454 0.7463h-2.1925c-0.4817 0-0.7454-0.2637-0.7454-0.7463v-3.2445c0-0.4826 0.2637-0.7454 0.7454-0.7454h2.1925c0.4826 0 0.7454 0.2628 0.7454 0.7454zm-4.5173 0c0 1.0091 0.5274 1.5355 1.5794 1.5355h2.1925c1.0529 0 1.5793-0.5264 1.5793-1.5355v-3.2445c0-1.0072-0.5264-1.5346-1.5793-1.5346h-2.1925c-1.052 0-1.5794 0.5274-1.5794 1.5346v3.2445"
             id="path416" /><path
             d="m482.38 121.01-3.1568 4.7362h-0.0438v-4.7362c0-0.0867-0.0438-0.1304-0.1314-0.1304h-0.5702c-0.0885 0-0.1314 0.0437-0.1314 0.1304v5.8757c0 0.0971 0.0429 0.1314 0.1314 0.1314h0.6578c0.1305 0 0.2104-0.0438 0.2628-0.1314l3.1568-4.7352h0.0438v4.7352c0 0.0876 0.0438 0.1314 0.1314 0.1314h0.5712c0.0866 0 0.1304-0.0438 0.1304-0.1314v-5.8757c0-0.0867-0.0438-0.1304-0.1304-0.1304h-0.6588c-0.1314 0-0.2104 0.0437-0.2628 0.1304"
             id="path418" /><path
             d="m491.48 135.56c0-0.6387-0.4255-1.2785-0.4255-1.2785l-1.7041-3.4072c-0.1285-0.2132-0.4265-0.4274-0.6388-0.4274h-1.0653c-0.2132 0-0.298 0.2142-0.2132 0.4274l1.9173 3.8337h-1.0653c-0.4255 0-0.6388 0.2133-0.6388 0.6378v2.5571c0 0.4256 0.2133 0.6379 0.6388 0.6379h2.5561c0.4265 0 0.6388-0.2123 0.6388-0.6379v-2.3429"
             id="path420" /></g><g
           fill="#4dc6f4"
           id="g444"><path
             d="m408.26 158.48h-0.4655c-1.19 0-2.1544-0.9644-2.1544-2.1544v-2.4114c0-1.1891 0.9644-2.1544 2.1544-2.1544h0.4655c1.19 0 2.1544 0.9653 2.1544 2.1544v2.4114c0 1.19-0.9644 2.1544-2.1544 2.1544"
             id="path424" /><path
             d="m393.34 158.48h-0.4665c-1.19 0-2.1544-0.9644-2.1544-2.1544v-2.4114c0-1.1891 0.9644-2.1544 2.1544-2.1544h0.4665c1.189 0 2.1534 0.9653 2.1534 2.1544v2.4114c0 1.19-0.9644 2.1544-2.1534 2.1544"
             id="path426" /><path
             d="m423.17 158.48h-0.4665c-1.189 0-2.1534-0.9644-2.1534-2.1544v-2.4114c0-1.1891 0.9644-2.1544 2.1534-2.1544h0.4665c1.19 0 2.1544 0.9653 2.1544 2.1544v2.4114c0 1.19-0.9644 2.1544-2.1544 2.1544"
             id="path428" /><path
             d="m438.09 158.48h-0.4665c-1.189 0-2.1534-0.9644-2.1534-2.1544v-2.4114c0-1.1891 0.9644-2.1544 2.1534-2.1544h0.4665c1.189 0 2.1544 0.9653 2.1544 2.1544v2.4114c0 1.19-0.9654 2.1544-2.1544 2.1544"
             id="path430" /><path
             d="m453 158.48h-0.4665c-1.189 0-2.1544-0.9644-2.1544-2.1544v-2.4114c0-1.1891 0.9654-2.1544 2.1544-2.1544h0.4665c1.189 0 2.1534 0.9653 2.1534 2.1544v2.4114c0 1.19-0.9644 2.1544-2.1534 2.1544"
             id="path432" /><path
             d="m467.92 158.48h-0.4665c-1.19 0-2.1544-0.9644-2.1544-2.1544v-2.4114c0-1.1891 0.9644-2.1544 2.1544-2.1544h0.4665c1.189 0 2.1534 0.9653 2.1534 2.1544v2.4114c0 1.19-0.9644 2.1544-2.1534 2.1544"
             id="path434" /><path
             d="m482.83 158.48h-0.4665c-1.19 0-2.1544-0.9644-2.1544-2.1544v-2.4114c0-1.1891 0.9644-2.1544 2.1544-2.1544h0.4665c1.189 0 2.1534 0.9653 2.1534 2.1544v2.4114c0 1.19-0.9644 2.1544-2.1534 2.1544"
             id="path436" /><path
             d="m497.75 158.48h-0.4665c-1.189 0-2.1534-0.9644-2.1534-2.1544v-2.4114c0-1.1891 0.9644-2.1544 2.1534-2.1544h0.4665c1.19 0 2.1544 0.9653 2.1544 2.1544v2.4114c0 1.19-0.9644 2.1544-2.1544 2.1544"
             id="path438" /><path
             d="m527.58 158.48h-0.4665c-1.1891 0-2.1535-0.9644-2.1535-2.1544v-2.4114c0-1.1891 0.9644-2.1544 2.1535-2.1544h0.4665c1.189 0 2.1543 0.9653 2.1543 2.1544v2.4114c0 1.19-0.9653 2.1544-2.1543 2.1544"
             id="path440" /><path
             d="m512.66 158.48h-0.4665c-1.1891 0-2.1534-0.9644-2.1534-2.1544v-2.4114c0-1.1891 0.9643-2.1544 2.1534-2.1544h0.4665c1.19 0 2.1543 0.9653 2.1543 2.1544v2.4114c0 1.19-0.9643 2.1544-2.1543 2.1544"
             id="path442" /></g><path
           d="m396.39 205.88v-9.4876h7.8312c1.3423 0 2.2372 0.9034 2.2372 2.2591v4.9694c0 1.3547-0.8949 2.2591-2.2372 2.2591zm12.53-15.133 4.4735-9.261c0.3132-0.6779-0.2237-1.1301-0.6702-1.1301h-4.8324c-0.9853 0-1.3442 0.4522-1.6565 1.1301l-4.0269 8.8088h-5.8177v-8.8088c0-0.6779-0.4474-1.1301-1.1176-1.1301h-4.4763c-0.6702 0-1.1177 0.4522-1.1177 1.1301v29.362c0 0.6778 0.4475 1.1291 1.1177 1.1291h15.438c4.6982 0 6.9354-2.2582 6.9354-7.002v-7.6798c0-6.0985-4.2498-6.5488-4.2498-6.5488"
           fill="#0b2d4d"
           id="path446" /><path
           d="m419.87 210.84c0 0.6778 0.4474 1.1291 1.1195 1.1291h4.4744c0.6712 0 1.1186-0.4513 1.1186-1.1291v-22.587c0-1.3547 0.8949-2.2591 2.2372-2.2591h6.0405c1.3423 0 2.2372 0.9044 2.2372 2.2591v22.587c0 0.6778 0.4474 1.1291 1.1186 1.1291h4.4744c0.6711 0 1.1195-0.4513 1.1195-1.1291v-23.942c0-4.7438-2.2372-7.0019-6.9363-7.0019h-10.067c-4.699 0-6.9362 2.2581-6.9362 7.0019v23.942"
           fill="#0b2d4d"
           id="path448" /><g
           fill="#4dc6f4"
           id="g456"><path
             d="m464.56 186.45c1.3423 0 2.2381 0.9035 2.2381 2.2591v2.936c0 1.3557-0.8958 2.2591-2.2381 2.2591h-7.8302v-7.4542zm-7.8302 19.426v-6.0995h6.2651c1.3423 0 2.2362 0.9044 2.2362 2.2591v1.5813c0 1.3547-0.8939 2.2591-2.2362 2.2591zm-6.7116 4.9685c0 0.6778 0.4464 1.1291 1.1176 1.1291h13.873c4.6981 0 6.9353-2.2582 6.9353-7.002v-2.936c0-3.8394-2.9084-4.5172-2.9084-4.5172v-0.4522s4.4744-0.6778 4.4744-5.4207v-4.2916c0-4.7429-2.2372-7.002-6.9363-7.002h-15.438c-0.6712 0-1.1176 0.4522-1.1176 1.1301v29.362"
             id="path450" /><path
             d="m493.19 193-2.9074 9.9379h-0.4475l-2.9093-9.9379zm-8.054-6.0986-1.566-5.4206c-0.179-0.6779-0.6712-1.1301-1.566-1.1301h-4.9228c-0.5817 0-0.894 0.4522-0.6712 1.1301l9.3972 29.362c0.2237 0.6778 0.6712 1.1291 1.566 1.1291h5.3703c0.8949 0 1.3423-0.4513 1.566-1.1291l9.3963-29.362c0.2246-0.6779-0.1333-1.1301-0.6712-1.1301h-4.9218c-0.8949 0-1.3424 0.4522-1.5661 1.1301l-1.566 5.4206h-9.8447"
             id="path452" /><path
             d="m514.29 186.45h14.318c0.6711 0 1.1195-0.4522 1.1195-1.13v-3.8384c0-0.6779-0.4484-1.1301-1.1195-1.1301h-19.912c-0.6711 0-1.1186 0.4522-1.1186 1.1301v29.362c0 0.6778 0.4475 1.1291 1.1186 1.1291h19.466c0.6711 0 1.1176-0.4513 1.1176-1.1291v-3.8394c0-0.6778-0.4465-1.1291-1.1176-1.1291h-13.872v-6.3251h10.515c0.6712 0 1.1186-0.4512 1.1186-1.1291v-3.8394c0-0.6778-0.4474-1.13-1.1186-1.13h-10.515v-7.002"
             id="path454" /></g><path
           d="m549.54 163.21c-8.9517 7.1314-19.946 7.7578-28.135 7.7578h-130.26c-7.4589 0-15.48 0.3085-21.41 10.678 0.9339-13.914 17.377-14.358 17.377-14.358h132.68c9.8066 0 15.184 0.5093 29.753-4.0774"
           fill="#0b2d4d"
           id="path458" /><path
           d="m504.73 111.25c0-0.397-0.1961-0.5969-0.596-0.5969h-2.5818c-0.396 0-0.5959 0.1999-0.5959 0.5969v23.639h-5.7615c-0.3961 0-0.596 0.2-0.596 0.5969v2.3858c0 0.396 0.1999 0.5959 0.596 0.5959h8.9392c0.3999 0 0.596-0.1999 0.596-0.5959v-26.622"
           fill="#142f55"
           id="path460" /><path
           d="m527.2 125.36v6.5574c0 2.1848-1.1929 3.3777-3.3749 3.3777h-6.3574c-2.1858 0-3.3787-1.1929-3.3787-3.4168v-3.0997c0-2.2257 1.1929-3.4186 3.3787-3.4186zm0-3.5748h-9.7323c-4.7714 0-7.1543 2.3819-7.1543 6.9535v3.1787c0 4.5677 2.3829 6.9534 7.1543 6.9534h6.3574c4.7648 0 7.1505-2.3857 7.1505-6.9534v-14.701c0-4.5715-2.3857-6.9534-7.1505-6.9534h-5.5644c-4.7686 0-7.1505 2.3819-7.1505 6.9534v1.19c0 0.3998 0.1961 0.5959 0.5931 0.5959h2.5856c0.3961 0 0.5931-0.1961 0.5931-0.5959v-1.19c0-2.1858 1.1929-3.3787 3.3787-3.3787h5.5644c2.182 0 3.3749 1.1929 3.3749 3.3787v4.5686"
           fill="#142f55"
           id="path462" /><g
           fill="#4dc6f4"
           id="g506"><path
             d="m394.25 110.89c-0.1295 0-0.1619 0.0333-0.1952 0.098l-1.5641 3.2901h-0.0324v-3.2901c0-0.0647-0.0333-0.098-0.0981-0.098h-0.4236c-0.0657 0-0.0981 0.0333-0.0981 0.098v4.3659c0 0.0647 0.0324 0.098 0.0981 0.098h0.4884c0.1304 0 0.1628-0.0333 0.1961-0.098l1.7136-3.6167h0.0266l1.7136 3.6167c0.0324 0.0647 0.0657 0.098 0.1962 0.098h0.4874c0.0666 0 0.099-0.0333 0.099-0.098v-4.3659c0-0.0647-0.0324-0.098-0.099-0.098h-0.4227c-0.0647 0-0.0981 0.0333-0.0981 0.098v3.2901h-0.0323l-1.5642-3.2901c-0.0333-0.0647-0.0657-0.098-0.1951-0.098h-0.1961"
             id="path464" /><path
             d="m401.29 114.38c0 0.358-0.1951 0.5531-0.554 0.5531h-1.6289c-0.3589 0-0.5541-0.1951-0.5541-0.5531v-2.4114c0-0.3589 0.1952-0.554 0.5541-0.554h1.6289c0.3589 0 0.554 0.1951 0.554 0.554zm-3.3558 0c0 0.7493 0.3913 1.1396 1.1729 1.1396h1.6289c0.7825 0 1.1738-0.3903 1.1738-1.1396v-2.4114c0-0.7502-0.3913-1.1405-1.1738-1.1405h-1.6289c-0.7816 0-1.1729 0.3903-1.1729 1.1405v2.4114"
             id="path466" /><path
             d="m405.46 112.68-1.9554 0.6198c-0.3912 0.1237-0.6511 0.3903-0.6511 0.8473v0.2284c0 0.7493 0.3903 1.1396 1.1728 1.1396h1.1729c0.7816 0 1.1729-0.3903 1.1729-1.1396v-0.2618c0-0.0647-0.0324-0.0971-0.0981-0.0971h-0.4236c-0.0648 0-0.0971 0.0324-0.0971 0.0971v0.2618c0 0.358-0.1952 0.5531-0.5541 0.5531h-1.1729c-0.3589 0-0.554-0.1951-0.554-0.5531v-0.1628c0-0.2284 0.1304-0.3522 0.3579-0.4236l1.9554-0.6198c0.3913-0.1237 0.6512-0.3912 0.6512-0.8463v-0.3589c0-0.7502-0.3903-1.1405-1.1719-1.1405h-1.3043c-0.7815 0-1.1728 0.3903-1.1728 1.1405v0.2609c0 0.0637 0.0333 0.098 0.098 0.098h0.4237c0.0657 0 0.098-0.0343 0.098-0.098v-0.2609c0-0.3589 0.1952-0.554 0.5531-0.554h1.3043c0.3579 0 0.5531 0.1951 0.5531 0.554v0.2932c0 0.2276-0.1304 0.3513-0.358 0.4227"
             id="path468" /><path
             d="m407.38 114.38c0 0.7493 0.3913 1.1396 1.1729 1.1396h1.4994c0.7816 0 1.1729-0.3903 1.1729-1.1396v-0.2618c0-0.0647-0.0324-0.0971-0.0981-0.0971h-0.4236c-0.0657 0-0.0981 0.0324-0.0981 0.0971v0.2618c0 0.358-0.1952 0.5531-0.5531 0.5531h-1.4994c-0.358 0-0.5541-0.1951-0.5541-0.5531v-2.4114c0-0.3589 0.1961-0.554 0.5541-0.554h1.4994c0.3579 0 0.5531 0.1951 0.5531 0.554v0.2609c0 0.0637 0.0324 0.098 0.0981 0.098h0.4236c0.0657 0 0.0981-0.0343 0.0981-0.098v-0.2609c0-0.7502-0.3913-1.1405-1.1729-1.1405h-1.4994c-0.7816 0-1.1729 0.3903-1.1729 1.1405v2.4114"
             id="path470" /><path
             d="m415.45 114.38c0 0.358-0.1952 0.5531-0.5541 0.5531h-1.6288c-0.3589 0-0.5541-0.1951-0.5541-0.5531v-2.4114c0-0.3589 0.1952-0.554 0.5541-0.554h1.6288c0.3589 0 0.5541 0.1951 0.5541 0.554zm-3.3558 0c0 0.7493 0.3903 1.1396 1.1729 1.1396h1.6288c0.7816 0 1.1729-0.3903 1.1729-1.1396v-2.4114c0-0.7502-0.3913-1.1405-1.1729-1.1405h-1.6288c-0.7826 0-1.1729 0.3903-1.1729 1.1405v2.4114"
             id="path472" /><path
             d="m419.7 115.45c0.0647 0 0.1104-0.0333 0.1304-0.098l0.9453-3.4215h0.0315l0.9453 3.4215c0.02 0.0647 0.0647 0.098 0.1304 0.098h0.4237c0.0656 0 0.0847-0.0333 0.0656-0.098l-1.2061-4.3659c-0.02-0.0647-0.0648-0.098-0.1305-0.098h-0.3912c-0.0648 0-0.1038 0.0333-0.1305 0.098l-0.9967 3.6167h-0.0267l-0.9967-3.6167c-0.0257-0.0647-0.0647-0.098-0.1295-0.098h-0.3922c-0.0647 0-0.1104 0.0333-0.1295 0.098l-1.2062 4.3659c-0.019 0.0647 0 0.098 0.0648 0.098h0.4246c0.0647 0 0.1104-0.0333 0.1304-0.098l0.9453-3.4215h0.0324l0.9444 3.4215c0.02 0.059 0.0647 0.098 0.1304 0.098h0.3913"
             id="path474" /><path
             d="m424.73 113.4c0.2275 0 0.3903-0.1619 0.3903-0.3903v-0.1638c0-0.2275-0.1628-0.3903-0.3903-0.3903h-0.1961c-0.2276 0-0.3903 0.1628-0.3903 0.3903v0.1638c0 0.2284 0.1627 0.3903 0.3903 0.3903h0.1961"
             id="path476" /><path
             d="m429.88 112.68-1.9545 0.6198c-0.3912 0.1237-0.6521 0.3903-0.6521 0.8473v0.2284c0 0.7493 0.3903 1.1396 1.1738 1.1396h1.172c0.7825 0 1.1728-0.3903 1.1728-1.1396v-0.2618c0-0.0647-0.0324-0.0971-0.0971-0.0971h-0.4236c-0.0657 0-0.0981 0.0324-0.0981 0.0971v0.2618c0 0.358-0.1951 0.5531-0.554 0.5531h-1.172c-0.3589 0-0.555-0.1951-0.555-0.5531v-0.1628c0-0.2284 0.1304-0.3522 0.358-0.4236l1.9554-0.6198c0.3913-0.1237 0.6521-0.3912 0.6521-0.8463v-0.3589c0-0.7502-0.3913-1.1405-1.1729-1.1405h-1.3042c-0.7816 0-1.1719 0.3903-1.1719 1.1405v0.2609c0 0.0637 0.0324 0.098 0.0971 0.098h0.4236c0.0657 0 0.0981-0.0343 0.0981-0.098v-0.2609c0-0.3589 0.1951-0.554 0.5531-0.554h1.3042c0.358 0 0.5532 0.1951 0.5532 0.554v0.2932c0 0.2276-0.1295 0.3513-0.358 0.4227"
             id="path478" /><path
             d="m435.28 111.48c0.0647 0 0.098-0.0333 0.098-0.099v-0.3903c0-0.0647-0.0333-0.098-0.0914-0.098h-3.331c-0.0638 0-0.0981 0.0333-0.0981 0.098v4.3592c0 0.0714 0.0343 0.1047 0.0981 0.1047h3.2587c0.0657 0 0.098-0.0333 0.098-0.098v-0.3903c0-0.0657-0.0323-0.0981-0.0914-0.0981h-2.7436v-1.369h2.1515c0.0647 0 0.0971-0.0314 0.0971-0.098v-0.3903c0-0.0657-0.0324-0.0971-0.0914-0.0971h-2.1572v-1.4338h2.8027"
             id="path480" /><path
             d="m438.6 112.91c0.3589 0 0.5541 0.1951 0.5541 0.554v0.8463c0 0.358-0.1952 0.5541-0.5541 0.5541h-1.8573v-1.9544zm-1.8573-0.5865v-1.3366c0-0.0647-0.0324-0.098-0.0971-0.098h-0.4246c-0.0638 0-0.0971 0.0333-0.0971 0.098v4.3659c0 0.0647 0.0333 0.098 0.0971 0.098h2.379c0.7826 0 1.1739-0.3903 1.1739-1.1405v-0.8463c0-0.7502-0.3913-1.1405-1.1739-1.1405h-1.8573"
             id="path482" /><path
             d="m442.28 110.99c0-0.0647-0.0334-0.098-0.0981-0.098h-0.4236c-0.0657 0-0.0981 0.0333-0.0981 0.098v3.8775h-1.4337c-0.0647 0-0.0971 0.0324-0.0971 0.0981v0.3903c0 0.0647 0.0324 0.098 0.0971 0.098h3.4862c0.0657 0 0.099-0.0333 0.099-0.098v-0.3903c0-0.0657-0.0333-0.0981-0.099-0.0981h-1.4327v-3.8775"
             id="path484" /><path
             d="m447.79 111.48c0.0647 0 0.0971-0.0333 0.0971-0.099v-0.3903c0-0.0647-0.0324-0.098-0.0905-0.098h-3.33c-0.0657 0-0.0991 0.0333-0.0991 0.098v4.3592c0 0.0714 0.0334 0.1047 0.0991 0.1047h3.2567c0.0667 0 0.0991-0.0333 0.0991-0.098v-0.3903c0-0.0657-0.0324-0.0981-0.0924-0.0981h-2.7437v-1.369h2.1516c0.0657 0 0.098-0.0314 0.098-0.098v-0.3903c0-0.0657-0.0323-0.0971-0.0914-0.0971h-2.1582v-1.4338h2.8037"
             id="path486" /><path
             d="m451.05 110.89c-0.1304 0-0.1628 0.0333-0.1951 0.098l-1.5642 3.2901h-0.0323v-3.2901c0-0.0647-0.0324-0.098-0.0981-0.098h-0.4236c-0.0648 0-0.0981 0.0333-0.0981 0.098v4.3659c0 0.0647 0.0333 0.098 0.0981 0.098h0.4893c0.1295 0 0.1628-0.0333 0.1952-0.098l1.7145-3.6167h0.0257l1.7136 3.6167c0.0324 0.0647 0.0647 0.098 0.1952 0.098h0.4883c0.0657 0 0.0981-0.0333 0.0981-0.098v-4.3659c0-0.0647-0.0324-0.098-0.0981-0.098h-0.4236c-0.0647 0-0.0971 0.0333-0.0971 0.098v3.2901h-0.0333l-1.5632-3.2901c-0.0324-0.0647-0.0657-0.098-0.1952-0.098h-0.1961"
             id="path488" /><path
             d="m457.82 112.49c0 0.3579-0.1952 0.5531-0.5532 0.5531h-1.8573v-1.5623h1.8573c0.358 0 0.5532 0.1952 0.5532 0.5532v0.456zm-0.2609 1.8249c0 0.358-0.1952 0.5541-0.5541 0.5541h-1.5955v-1.2376h1.5955c0.3589 0 0.5541 0.1952 0.5541 0.5531v0.1304zm0.8797-2.2809c0-0.7493-0.3904-1.1405-1.172-1.1405h-2.379c-0.0657 0-0.0981 0.0333-0.0981 0.098v4.3659c0 0.0647 0.0324 0.098 0.0914 0.098h2.1239c0.7826 0 1.1739-0.3903 1.1739-1.1405v-0.1304c0-0.6521-0.4894-0.7825-0.4894-0.7825v-0.0324s0.7493-0.1295 0.7493-0.8796v-0.456"
             id="path490" /><path
             d="m462.8 111.48c0.0657 0 0.099-0.0333 0.099-0.099v-0.3903c0-0.0647-0.0333-0.098-0.0923-0.098h-3.3301c-0.0647 0-0.0971 0.0333-0.0971 0.098v4.3592c0 0.0714 0.0324 0.1047 0.0971 0.1047h3.2587c0.0647 0 0.098-0.0333 0.098-0.098v-0.3903c0-0.0657-0.0333-0.0981-0.0904-0.0981h-2.7446v-1.369h2.1515c0.0638 0 0.0971-0.0314 0.0971-0.098v-0.3903c0-0.0657-0.0333-0.0971-0.0914-0.0971h-2.1572v-1.4338h2.8017"
             id="path492" /><path
             d="m466.06 113.04c0.3589 0 0.5541 0.197 0.5541 0.554v0.7178c0 0.358-0.1952 0.5541-0.5541 0.5541h-1.7926v-1.8259zm1.2709-2.0516c0.0324-0.0647 0-0.098-0.0647-0.098h-0.457c-0.0971 0-0.1294 0.0333-0.1628 0.098l-0.7815 1.4661h-1.5975v-1.4661c0-0.0647-0.0324-0.098-0.0971-0.098h-0.4236c-0.0657 0-0.0981 0.0333-0.0981 0.098v4.3659c0 0.0647 0.0324 0.098 0.0981 0.098h2.3133c0.7816 0 1.1729-0.3903 1.1729-1.1405v-0.7178c0-0.9767-0.7492-1.0738-0.7492-1.0738l0.8472-1.5318"
             id="path494" /><path
             d="m470.57 110.99c0-0.0647-0.0333-0.098-0.098-0.098h-0.4237c-0.0656 0-0.098 0.0333-0.098 0.098v3.8775h-0.9444c-0.0647 0-0.0981 0.0324-0.0981 0.0981v0.3903c0 0.0647 0.0334 0.098 0.0981 0.098h1.4661c0.0647 0 0.098-0.0333 0.098-0.098v-4.3659"
             id="path496" /><path
             d="m472.85 110.99c0-0.0647-0.0323-0.098-0.0971-0.098h-0.4246c-0.0647 0-0.0971 0.0333-0.0971 0.098v3.8775h-0.9444c-0.0656 0-0.098 0.0324-0.098 0.0981v0.3903c0 0.0647 0.0324 0.098 0.098 0.098h1.4661c0.0648 0 0.0971-0.0333 0.0971-0.098v-4.3659"
             id="path498" /><path
             d="m476.98 113.01c0-0.0657-0.0324-0.0971-0.098-0.0971h-3.2587c-0.0648 0-0.0971 0.0314-0.0971 0.0971v0.3903c0 0.0666 0.0323 0.098 0.0971 0.098h3.2587c0.0656 0 0.098-0.0314 0.098-0.098v-0.3903"
             id="path500" /><path
             d="m478.81 110.99c0-0.0647-0.0324-0.098-0.0981-0.098h-0.4236c-0.0647 0-0.0981 0.0333-0.0981 0.098v3.8775h-0.9453c-0.0647 0-0.0971 0.0324-0.0971 0.0981v0.3903c0 0.0647 0.0324 0.098 0.0971 0.098h1.467c0.0657 0 0.0981-0.0333 0.0981-0.098v-4.3659"
             id="path502" /><path
             d="m481.9 113.63c0.7825 0 1.1738-0.3913 1.1738-1.1414v-0.5208c0-0.7502-0.3913-1.1405-1.1738-1.1405h-1.0424c-0.7816 0-1.1729 0.3903-1.1729 1.1405v0.2609c0 0.0637 0.0324 0.098 0.098 0.098h0.4237c0.0647 0 0.0971-0.0343 0.0971-0.098v-0.2609c0-0.3589 0.1952-0.554 0.5541-0.554h1.0424c0.3589 0 0.5541 0.1951 0.5541 0.554v0.5208c0 0.3579-0.1952 0.5531-0.5541 0.5531h-1.1395c-0.0657 0-0.0981 0.0342-0.0981 0.099v0.2599c0 0.098 0.0647 0.1637 0.1304 0.2294l1.2709 1.2043v0.0333h-2.1515c-0.0647 0-0.098 0.0324-0.098 0.0981v0.3903c0 0.0647 0.0333 0.098 0.098 0.098h2.9979c0.0657 0 0.098-0.0333 0.098-0.098v-0.2599c0-0.0981-0.0647-0.1638-0.1304-0.2285l-1.2709-1.2052v-0.0324h0.2932"
             id="path504" /></g></g></g></g></svg>